SplineFontDB: 3.0
FontName: Topmarks-Book
FullName: Topmarks Book
FamilyName: Topmarks
Weight: Medium
Copyright: Copyright (c) 2012-13 by vernon adams. All rights reserved.
Version: x
ItalicAngle: 0
UnderlinePosition: 0
UnderlineWidth: 0
Ascent: 1638
Descent: 410
UFOAscent: 1960
UFODescent: -656
LayerCount: 2
Layer: 0 0 "Back"  1
Layer: 1 0 "Fore"  0
FSType: 0
OS2Version: 0
OS2_WeightWidthSlopeOnly: 0
OS2_UseTypoMetrics: 1
CreationTime: 1364949638
ModificationTime: 1365261687
PfmFamily: 17
TTFWeight: 400
TTFWidth: 5
LineGap: 0
VLineGap: 0
OS2TypoAscent: 1960
OS2TypoAOffset: 0
OS2TypoDescent: -656
OS2TypoDOffset: 0
OS2TypoLinegap: 0
OS2WinAscent: 1960
OS2WinAOffset: 0
OS2WinDescent: 656
OS2WinDOffset: 0
HheadAscent: 1960
HheadAOffset: 0
HheadDescent: -656
HheadDOffset: 0
OS2Vendor: 'newt'
Lookup: 4 0 0 "fracDiagonalFractionslookup0"  {"fracDiagonalFractionslookup0 subtable"  } ['frac' ('latn' <'dflt' > 'grek' <'dflt' > 'DFLT' <'dflt' > ) ]
Lookup: 258 0 0 "'kern' Horizontal Kerning in Latin lookup 0"  {"'kern' Horizontal Kerning in Latin lookup 0 subtable" [307,30,0] "kernHorizontalKerninginLatinloo kerning class 1" [307,0,0] } ['kern' ('latn' <'dflt' > ) ]
Lookup: 260 0 0 "markMarkPositioninglookup0"  {"markMarkPositioninglookup0 subtable"  } ['mark' ('latn' <'dflt' > 'grek' <'dflt' > 'DFLT' <'dflt' > ) ]
MarkAttachClasses: 1
DEI: 91125
KernClass2: 16 23 "kernHorizontalKerninginLatinloo kerning class 1" 
 89 A Aacute Abreve Acircumflex Adieresis Agrave Amacron Aogonek Aring Atilde uni0200 uni0202
 1 D
 1 F
 14 G Gcommaaccent
 1 K
 1 L
 1 P
 9 T uni021A
 1 V
 1 W
 18 Y Yacute Ydieresis
 24 c cacute ccaron ccedilla
 60 o oacute ocircumflex odieresis ograve otilde uni020D uni020F
 37 r rcaron rcommaaccent uni0211 uni0213
 44 R Racute Rcommaaccent Rcaron uni0210 uni0212
 89 A Aacute Abreve Acircumflex Adieresis Agrave Amacron Aogonek Aring Atilde uni0200 uni0202
 24 C Cacute Ccaron Ccedilla
 14 G Gcommaaccent

StartChar: A
Encoding: 65 65 0
Width: 1397
VWidth: 0
GlyphClass: 2
Flags: W
HStem: 0 21G<40 233.544 1158.41 1357> 395 136<427 964> 1436 20G<601.184 794.83>
AnchorPoint: "top" 702 1536 basechar 0
AnchorPoint: "bottom" 736 0 basechar 0
AnchorPoint: "ogonek" 1260 0 basechar 0
LayerCount: 2
UndoRedoHistory
Layer: 1
Undoes
EndUndoes
Redoes
EndRedoes
EndUndoRedoHistory
Fore
SplineSet
40 0 m 1
 609 1456 l 1
 787 1456 l 1
 1357 0 l 1
 1166 0 l 1
 1016 395 l 1
 375 395 l 1
 226 0 l 1
 40 0 l 1
427 531 m 1
 964 531 l 1
 794 997 l 1
 698 1271 l 1
 596 996 l 1
 427 531 l 1
EndSplineSet
EndChar

StartChar: AE
Encoding: 198 198 1
Width: 1981
VWidth: 0
GlyphClass: 2
Flags: W
HStem: 0 148<1227 1855> 398 148<506 1032> 672 148<1187 1791> 1308 148<926 974 1133 1832>
LayerCount: 2
UndoRedoHistory
Layer: 1
Undoes
EndUndoes
Redoes
EndRedoes
EndUndoRedoHistory
Fore
SplineSet
15 0 m 1
 823 1456 l 1
 1832 1456 l 1
 1832 1308 l 1
 1133 1308 l 1
 1169 820 l 1
 1791 820 l 1
 1791 672 l 1
 1187 672 l 1
 1227 148 l 1
 1855 148 l 1
 1855 0 l 1
 1080 0 l 1
 1050 398 l 1
 430 398 l 1
 211 0 l 1
 15 0 l 1
506 546 m 1
 1032 546 l 1
 974 1308 l 1
 926 1308 l 1
 506 546 l 1
EndSplineSet
EndChar

StartChar: B
Encoding: 66 66 11
Width: 1294
VWidth: 0
GlyphClass: 2
Flags: W
HStem: 0 138<372 872.216> 684 141<372 820.445> 1318 138<372 827.043>
VStem: 200 172<138 684 825 1318> 933 181<924.244 1223.1> 998 182<247.769 566.348>
AnchorPoint: "top" 700 1536 basechar 0
AnchorPoint: "bottom" 676 0 basechar 0
LayerCount: 2
UndoRedoHistory
Layer: 1
Undoes
EndUndoes
Redoes
EndRedoes
EndUndoRedoHistory
Fore
SplineSet
200 0 m 1xf4
 200 1456 l 1
 571 1456 l 2
 931 1456 1114 1357 1114 1105 c 0xf8
 1114 918 1039 823 881 769 c 1
 1077 730 1180 625 1180 403 c 0
 1180 114 967 0 634 0 c 2
 200 0 l 1xf4
372 138 m 1
 628 138 l 2
 885 138 998 214 998 406 c 0xf4
 998 602 881 684 584 684 c 2
 372 684 l 1
 372 138 l 1
372 825 m 1
 555 825 l 2
 826 825 933 898 933 1077 c 0xf8
 933 1250 833 1318 571 1318 c 2
 372 1318 l 1
 372 825 l 1
EndSplineSet
EndChar

StartChar: C
Encoding: 67 67 12
Width: 1369
VWidth: 0
GlyphClass: 2
Flags: W
HStem: -24 150<594.704 1047.2> 1330 150<606.691 1042.36>
VStem: 116 183<458.522 979.34>
AnchorPoint: "top" 790 1536 basechar 0
AnchorPoint: "bottom" 826 0 basechar 0
LayerCount: 2
UndoRedoHistory
Layer: 1
Undoes
EndUndoes
Redoes
EndRedoes
EndUndoRedoHistory
Fore
SplineSet
804 -24 m 0
 409 -24 116 260 116 722 c 0
 116 1161 394 1480 802 1480 c 0
 997 1480 1137 1425 1255 1332 c 1
 1177 1210 l 1
 1073 1288 949 1330 820 1330 c 0
 485 1330 299 1058 299 722 c 0
 299 370 490 126 811 126 c 0
 968 126 1102 178 1217 271 c 1
 1277 129 l 1
 1148 29 987 -24 804 -24 c 0
EndSplineSet
EndChar

StartChar: D
Encoding: 68 68 18
Width: 1518
VWidth: 0
GlyphClass: 2
Flags: W
HStem: 0 138<372 886.001> 1318 138<372 865.758>
VStem: 200 172<138 1318> 1220 182<463.129 993.892>
AnchorPoint: "top" 700 1536 basechar 0
AnchorPoint: "bottom" 676 0 basechar 0
LayerCount: 2
UndoRedoHistory
Layer: 1
Undoes
EndUndoes
Redoes
EndRedoes
EndUndoRedoHistory
Fore
SplineSet
372 138 m 1
 623 138 l 2
 993 138 1220 334 1220 721 c 0
 1220 1178 961 1318 529 1318 c 2
 372 1318 l 1
 372 138 l 1
200 0 m 1
 200 1456 l 1
 509 1456 l 2
 1035 1456 1402 1273 1402 724 c 0
 1402 241 1073 0 607 0 c 2
 200 0 l 1
EndSplineSet
EndChar

StartChar: Delta
Encoding: 916 916 20
Width: 1294
VWidth: 0
GlyphClass: 2
Flags: W
HStem: 0 135<245 1050> 1436 20G<552.587 742.398>
LayerCount: 2
UndoRedoHistory
Layer: 1
Undoes
EndUndoes
Redoes
EndRedoes
EndUndoRedoHistory
Fore
SplineSet
50 0 m 1
 50 80 l 1
 560 1456 l 1
 735 1456 l 1
 1244 80 l 1
 1244 0 l 1
 50 0 l 1
245 135 m 1
 1050 135 l 1
 675 1187 l 1
 643 1294 l 1
 612 1187 l 1
 245 135 l 1
EndSplineSet
EndChar

StartChar: E
Encoding: 69 69 21
Width: 1191
VWidth: 0
GlyphClass: 2
Flags: W
HStem: 0 138<372 1097> 672 148<372 1009> 1318 138<372 1047>
VStem: 200 172<138 672 820 1318>
AnchorPoint: "top" 656 1536 basechar 0
AnchorPoint: "bottom" 826 0 basechar 0
AnchorPoint: "ogonek" 850 0 basechar 0
LayerCount: 2
UndoRedoHistory
Layer: 1
Undoes
EndUndoes
Redoes
EndRedoes
EndUndoRedoHistory
Fore
SplineSet
200 0 m 1
 200 1456 l 1
 1047 1456 l 1
 1047 1318 l 1
 372 1318 l 1
 372 820 l 1
 1009 820 l 1
 1009 672 l 1
 372 672 l 1
 372 138 l 1
 1097 138 l 1
 1097 0 l 1
 200 0 l 1
EndSplineSet
EndChar

StartChar: Eth
Encoding: 208 208 31
Width: 1518
VWidth: 0
GlyphClass: 2
Flags: W
HStem: 0 138<372 886.001> 672 128<43 610> 1318 138<372 865.758>
VStem: 200 172<138 1318> 1220 182<463.129 993.892>
LayerCount: 2
UndoRedoHistory
Layer: 1
Undoes
EndUndoes
Redoes
EndRedoes
EndUndoRedoHistory
Fore
SplineSet
43 800 m 1
 610 800 l 1
 610 672 l 1
 43 672 l 1
 43 800 l 1
EndSplineSet
Refer: 18 68 N 1 0 0 1 0 0 2
EndChar

StartChar: Euro
Encoding: 8364 8364 32
Width: 1394
VWidth: 0
GlyphClass: 2
Flags: W
HStem: -24 150<619.704 1072.2> 516 128<33 222 313 850> 794 128<32 222 313 883> 1330 150<631.691 1067.36>
VStem: 141 183<458.522 979.34> 222 91<644 794>
LayerCount: 2
UndoRedoHistory
Layer: 1
Undoes
EndUndoes
Redoes
EndRedoes
EndUndoRedoHistory
Fore
SplineSet
850 516 m 1xf4
 13 516 l 1
 33 644 l 1
 222 644 l 1
 222 794 l 1
 10 794 l 1
 32 922 l 1
 903 922 l 1
 883 794 l 1
 313 794 l 1
 313 644 l 1
 869 644 l 1
 850 516 l 1xf4
EndSplineSet
Refer: 12 67 N 1 0 0 1 25 0 2
EndChar

StartChar: F
Encoding: 70 70 33
Width: 1116
VWidth: 0
GlyphClass: 2
Flags: W
HStem: 0 21G<200 372> 667 148<372 992> 1318 138<372 1026>
VStem: 200 172<0 667 815 1318>
AnchorPoint: "top" 700 1536 basechar 0
AnchorPoint: "bottom" 676 0 basechar 0
LayerCount: 2
UndoRedoHistory
Layer: 1
Undoes
EndUndoes
Redoes
EndRedoes
EndUndoRedoHistory
Fore
SplineSet
200 0 m 1
 200 1456 l 1
 1026 1456 l 1
 1026 1318 l 1
 372 1318 l 1
 372 815 l 1
 992 815 l 1
 992 667 l 1
 372 667 l 1
 372 0 l 1
 200 0 l 1
EndSplineSet
EndChar

StartChar: G
Encoding: 71 71 34
Width: 1485
VWidth: 0
GlyphClass: 2
Flags: W
HStem: -24 150<594.269 1135.42> 608 149<742 1145> 1329 151<616.075 1059.44>
VStem: 116 183<441.994 981.177> 1145 172<158.837 608>
AnchorPoint: "top" 790 1536 basechar 0
AnchorPoint: "bottom" 826 0 basechar 0
LayerCount: 2
UndoRedoHistory
Layer: 1
Undoes
EndUndoes
Redoes
EndRedoes
EndUndoRedoHistory
Fore
SplineSet
116 701 m 0
 116 1220 448 1480 815 1480 c 0
 976 1480 1143 1430 1292 1331 c 1
 1218 1208 l 1
 1084 1290 948 1329 824 1329 c 0
 530 1329 299 1110 299 714 c 0
 299 344 484 126 840 126 c 0
 956 126 1059 138 1145 174 c 1
 1145 608 l 1
 742 608 l 1
 742 757 l 1
 1317 757 l 1
 1317 81 l 1
 1172 13 1018 -24 827 -24 c 0
 381 -24 116 239 116 701 c 0
EndSplineSet
EndChar

StartChar: H
Encoding: 72 72 39
Width: 1514
VWidth: 0
GlyphClass: 2
Flags: W
HStem: 0 21G<200 372 1142 1314> 674 148<372 1142> 1436 20G<200 372 1142 1314>
VStem: 200 172<0 674 822 1456> 1142 172<0 674 822 1456>
AnchorPoint: "top" 793 1536 basechar 0
AnchorPoint: "bottom" 788 0 basechar 0
LayerCount: 2
UndoRedoHistory
Layer: 1
Undoes
EndUndoes
Redoes
EndRedoes
EndUndoRedoHistory
Fore
SplineSet
200 0 m 1
 200 1456 l 1
 372 1456 l 1
 372 822 l 1
 1142 822 l 1
 1142 1456 l 1
 1314 1456 l 1
 1314 0 l 1
 1142 0 l 1
 1142 674 l 1
 372 674 l 1
 372 0 l 1
 200 0 l 1
EndSplineSet
EndChar

StartChar: I
Encoding: 73 73 41
Width: 770
VWidth: 0
GlyphClass: 2
Flags: W
HStem: 0 124<110 299 471 660> 1332 124<110 299 471 660>
VStem: 299 172<124 1332>
AnchorPoint: "top" 289 1536 basechar 0
AnchorPoint: "bottom" 286 1 basechar 0
LayerCount: 2
UndoRedoHistory
Layer: 1
Undoes
EndUndoes
Redoes
EndRedoes
EndUndoRedoHistory
Fore
SplineSet
660 0 m 1
 110 0 l 1
 110 124 l 1
 299 124 l 1
 299 1332 l 1
 110 1332 l 1
 110 1456 l 1
 660 1456 l 1
 660 1332 l 1
 471 1332 l 1
 471 124 l 1
 660 124 l 1
 660 0 l 1
EndSplineSet
EndChar

StartChar: J
Encoding: 74 74 52
Width: 1078
VWidth: 0
GlyphClass: 2
Flags: W
HStem: -24 150<222.48 528.356> 1318 138<211 618 783 1054>
VStem: 618 165<231.234 1318>
AnchorPoint: "top" 550 1536 basechar 0
LayerCount: 2
UndoRedoHistory
Layer: 1
Undoes
EndUndoes
Redoes
EndRedoes
EndUndoRedoHistory
Fore
SplineSet
44 130 m 1
 131 248 l 1
 199 166 293 126 378 126 c 0
 539 126 618 209 618 467 c 2
 618 1318 l 1
 211 1318 l 1
 211 1456 l 1
 1054 1456 l 1
 1054 1318 l 1
 783 1318 l 1
 783 434 l 2
 783 123 639 -24 388 -24 c 0
 265 -24 129 24 44 130 c 1
EndSplineSet
EndChar

StartChar: K
Encoding: 75 75 54
Width: 1250
VWidth: 0
GlyphClass: 2
Flags: W
HStem: 0 21G<200 372 1005.04 1241> 1436 20G<200 372 971.273 1201>
VStem: 200 172<0 725 796 1456>
AnchorPoint: "top" 667 1536 basechar 0
AnchorPoint: "bottom" 726 0 basechar 0
LayerCount: 2
UndoRedoHistory
Layer: 1
Undoes
EndUndoes
Redoes
EndRedoes
EndUndoRedoHistory
Fore
SplineSet
200 0 m 1
 200 1456 l 1
 372 1456 l 1
 372 796 l 1
 990 1456 l 1
 1201 1456 l 1
 550 764 l 1
 1241 0 l 1
 1023 0 l 1
 372 725 l 1
 372 0 l 1
 200 0 l 1
EndSplineSet
EndChar

StartChar: L
Encoding: 76 76 56
Width: 1076
VWidth: 0
GlyphClass: 2
Flags: W
HStem: 0 138<372 1053> 1436 20G<200 372>
VStem: 200 172<138 1456>
AnchorPoint: "top" 580 1536 basechar 0
AnchorPoint: "bottom" 696 0 basechar 0
LayerCount: 2
UndoRedoHistory
Layer: 1
Undoes
EndUndoes
Redoes
EndRedoes
EndUndoRedoHistory
Fore
SplineSet
200 0 m 1
 200 1456 l 1
 372 1456 l 1
 372 138 l 1
 1053 138 l 1
 1053 0 l 1
 200 0 l 1
EndSplineSet
EndChar

StartChar: Lslash
Encoding: 321 321 61
Width: 1076
VWidth: 0
GlyphClass: 2
Flags: W
HStem: 0 138<372 1053> 1007 20G<621.678 653> 1436 20<200 372>
VStem: 200 172<138 1456>
LayerCount: 2
UndoRedoHistory
Layer: 1
Undoes
EndUndoes
Redoes
EndRedoes
EndUndoRedoHistory
Fore
SplineSet
653 890 m 1
 25 489 l 1
 25 626 l 1
 653 1027 l 1
 653 890 l 1
EndSplineSet
Refer: 56 76 N 1 0 0 1 0 0 2
EndChar

StartChar: M
Encoding: 77 77 62
Width: 1946
VWidth: 0
GlyphClass: 2
Flags: W
HStem: 0 21G<200 370 1578 1746> 1436 20G<200 436.604 1523.04 1746>
VStem: 200 170<0 1268> 1578 168<0 1251>
AnchorPoint: "top" 970 1536 basechar 0
AnchorPoint: "bottom" 976 0 basechar 0
LayerCount: 2
UndoRedoHistory
Layer: 1
Undoes
EndUndoes
Redoes
EndRedoes
EndUndoRedoHistory
Fore
SplineSet
200 0 m 1
 200 1456 l 1
 426 1456 l 1
 891 579 l 1
 974 420 l 1
 1055 582 l 1
 1534 1456 l 1
 1746 1456 l 1
 1746 0 l 1
 1578 0 l 1
 1578 1251 l 1
 1503 1096 l 1
 1032 220 l 1
 911 220 l 1
 437 1108 l 1
 370 1268 l 1
 370 0 l 1
 200 0 l 1
EndSplineSet
EndChar

StartChar: N
Encoding: 78 78 63
Width: 1587
VWidth: 0
GlyphClass: 2
Flags: W
HStem: 0 21G<200 372 1166.72 1387> 1436 20G<200 418.214 1216 1387>
VStem: 200 172<0 1237> 1216 171<215 1456>
AnchorPoint: "top" 809 1536 basechar 0
AnchorPoint: "bottom" 804 0 basechar 0
LayerCount: 2
UndoRedoHistory
Layer: 1
Undoes
EndUndoes
Redoes
EndRedoes
EndUndoRedoHistory
Fore
SplineSet
200 0 m 1
 200 1456 l 1
 405 1456 l 1
 1141 342 l 1
 1216 215 l 1
 1216 1456 l 1
 1387 1456 l 1
 1387 0 l 1
 1180 0 l 1
 441 1113 l 1
 372 1237 l 1
 372 0 l 1
 200 0 l 1
EndSplineSet
EndChar

StartChar: O
Encoding: 79 79 68
Width: 1626
VWidth: 0
GlyphClass: 2
Flags: W
HStem: -24 150<612.163 1013.84> 1330 150<612.163 1013.84>
VStem: 116 184<464.162 993.094> 1326 184<464.162 993.094>
AnchorPoint: "top" 790 1536 basechar 0
AnchorPoint: "bottom" 826 0 basechar 0
LayerCount: 2
UndoRedoHistory
Layer: 1
Undoes
EndUndoes
Redoes
EndRedoes
EndUndoRedoHistory
Fore
SplineSet
813 126 m 0
 1080 126 1326 330 1326 729 c 0
 1326 1128 1080 1330 813 1330 c 0
 546 1330 300 1128 300 729 c 0
 300 330 546 126 813 126 c 0
813 -24 m 0
 358 -24 116 336 116 728 c 0
 116 1122 358 1480 813 1480 c 0
 1268 1480 1510 1122 1510 728 c 0
 1510 336 1268 -24 813 -24 c 0
EndSplineSet
EndChar

StartChar: OE
Encoding: 338 338 69
Width: 1998
VWidth: 0
GlyphClass: 2
Flags: W
HStem: -24 150<612.163 1004.18> 0 138<1179 1904> 672 148<1179 1816> 1318 138<1179 1854> 1330 150<612.163 1004.18>
VStem: 116 184<464.162 993.094> 1007 172<138 672 820 1318>
LayerCount: 2
UndoRedoHistory
Layer: 1
Undoes
EndUndoes
Redoes
EndRedoes
EndUndoRedoHistory
Fore
SplineSet
1007 1292 m 1x36
 946 1317 880 1330 813 1330 c 0
 546 1330 300 1128 300 729 c 0
 300 330 546 126 813 126 c 0xae
 880 126 946 139 1007 165 c 1
 1007 0 l 1x66
 948 -16 883 -24 813 -24 c 0
 358 -24 116 336 116 728 c 0
 116 1122 358 1480 813 1480 c 0xae
 883 1480 948 1472 1007 1456 c 1
 1007 1292 l 1x36
EndSplineSet
Refer: 21 69 N 1 0 0 1 807 0 2
EndChar

StartChar: Oslash
Encoding: 216 216 77
Width: 1626
VWidth: 0
GlyphClass: 2
Flags: W
HStem: -24 150<612.163 1013.84> 1330 150<612.163 1013.84>
VStem: 116 184<464.162 993.094> 1326 184<464.162 993.094>
LayerCount: 2
UndoRedoHistory
Layer: 1
Undoes
EndUndoes
Redoes
EndRedoes
EndUndoRedoHistory
Fore
SplineSet
521 -175 m 1
 418 -142 l 1
 1125 1604 l 1
 1232 1571 l 1
 521 -175 l 1
EndSplineSet
Refer: 68 79 N 1 0 0 1 0 0 2
EndChar

StartChar: P
Encoding: 80 80 79
Width: 1245
VWidth: 0
GlyphClass: 2
Flags: W
HStem: 0 21G<200 372> 587 149<372 848.688> 1318 138<372 847.422>
VStem: 200 172<0 587 736 1318> 987 184<860.663 1194.34>
AnchorPoint: "top" 700 1536 basechar 0
AnchorPoint: "bottom" 676 0 basechar 0
LayerCount: 2
UndoRedoHistory
Layer: 1
Undoes
EndUndoes
Redoes
EndRedoes
EndUndoRedoHistory
Fore
SplineSet
200 0 m 1
 200 1456 l 1
 580 1456 l 2
 995 1456 1171 1316 1171 1020 c 0
 1171 734 974 587 604 587 c 2
 372 587 l 1
 372 0 l 1
 200 0 l 1
372 736 m 1
 623 736 l 2
 864 736 987 832 987 1018 c 0
 987 1222 882 1318 603 1318 c 2
 372 1318 l 1
 372 736 l 1
EndSplineSet
EndChar

StartChar: Q
Encoding: 81 81 80
Width: 1626
VWidth: 0
GlyphClass: 2
Flags: W
HStem: -24 150<612.163 1013.84> 1330 150<612.163 1013.84>
VStem: 116 184<464.162 993.094> 1326 184<464.162 993.094>
LayerCount: 2
UndoRedoHistory
Layer: 1
Undoes
EndUndoes
Redoes
EndRedoes
EndUndoRedoHistory
Fore
SplineSet
1227 -237 m 1
 867 402 l 1
 1005 477 l 1
 1355 -168 l 1
 1227 -237 l 1
EndSplineSet
Refer: 68 79 N 1 0 0 1 0 0 2
EndChar

StartChar: R
Encoding: 82 82 81
Width: 1317
VWidth: 0
GlyphClass: 2
Flags: W
HStem: 0 21G<200 372 1053.14 1253> 652 147<372 713.626> 1318 138<372 873.101>
VStem: 200 172<0 652 799 1318> 986 182<914.787 1211.5>
AnchorPoint: "top" 700 1536 basechar 0
AnchorPoint: "bottom" 676 0 basechar 0
LayerCount: 2
UndoRedoHistory
Layer: 1
Undoes
EndUndoes
Redoes
EndRedoes
EndUndoRedoHistory
Fore
SplineSet
200 0 m 1
 200 1456 l 1
 549 1456 l 2
 871 1456 1168 1410 1168 1074 c 0
 1168 867 1048 719 777 665 c 1
 790 743 l 1
 1253 0 l 1
 1065 0 l 1
 619 752 l 1
 715 652 l 1
 372 652 l 1
 372 0 l 1
 200 0 l 1
372 799 m 1
 627 799 l 2
 816 799 986 859 986 1058 c 0
 986 1269 833 1318 638 1318 c 2
 372 1318 l 1
 372 799 l 1
EndSplineSet
EndChar

StartChar: S
Encoding: 83 83 85
Width: 1186
VWidth: 0
GlyphClass: 2
Flags: W
HStem: -24 150<398.438 781.525> 1330 150<426.029 832.313>
VStem: 150.026 174<966.743 1236.98> 893 169<232.327 528.484>
AnchorPoint: "top" 604 1536 basechar 0
AnchorPoint: "bottom" 587 -1 basechar 0
LayerCount: 2
UndoRedoHistory
Layer: 1
Undoes
EndUndoes
Redoes
EndRedoes
EndUndoRedoHistory
Fore
SplineSet
615 -24 m 0
 425 -24 245 59 154 128 c 1
 205 278 l 1
 298 201 466 126 611 126 c 0
 795 126 893 231 893 394 c 0
 893 515 842 591 542 685 c 0
 260 774 148.026 884 150.026 1105 c 0
 152.026 1346 351 1480 607 1480 c 0
 780 1480 914.026 1425 1020.03 1348 c 1
 954.026 1217 l 1
 872.026 1276 752 1330 627 1330 c 0
 446 1330 327.026 1258 324.026 1114 c 0
 320.026 968 381 909 642 825 c 1
 977 719 1062 593 1062 391 c 0
 1062 146 895 -24 615 -24 c 0
EndSplineSet
EndChar

StartChar: T
Encoding: 84 84 91
Width: 1147
VWidth: 0
GlyphClass: 2
Flags: W
HStem: 0 21G<486 658> 1318 138<26 486 658 1121>
VStem: 486 172<0 1318>
AnchorPoint: "top" 576 1536 basechar 0
AnchorPoint: "bottom" 692 0 basechar 0
LayerCount: 2
UndoRedoHistory
Layer: 1
Undoes
EndUndoes
Redoes
EndRedoes
EndUndoRedoHistory
Fore
SplineSet
486 0 m 1
 486 1318 l 1
 26 1318 l 1
 26 1456 l 1
 1121 1456 l 1
 1121 1318 l 1
 658 1318 l 1
 658 0 l 1
 486 0 l 1
EndSplineSet
EndChar

StartChar: Thorn
Encoding: 222 222 94
Width: 1261
VWidth: 0
GlyphClass: 2
Flags: W
HStem: 0 21G<213 385> 443 149<385 892.589> 1164 148<385 887.247> 1436 20G<213 385>
VStem: 213 172<0 443 592 1164 1312 1456> 1003 184<700.778 1050.94>
LayerCount: 2
UndoRedoHistory
Layer: 1
Undoes
EndUndoes
Redoes
EndRedoes
EndUndoRedoHistory
Fore
SplineSet
213 0 m 1
 213 1456 l 1
 385 1456 l 1
 385 1312 l 1
 600 1312 l 2
 941 1312 1187 1231 1187 876 c 0
 1187 553.52 973 443 651 443 c 2
 385 443 l 1
 385 0 l 1
 213 0 l 1
385 592 m 1
 689 592 l 2
 899 592 1003 673.539 1003 874 c 0
 1003 1114 872 1164 642 1164 c 2
 385 1164 l 1
 385 592 l 1
EndSplineSet
EndChar

StartChar: U
Encoding: 85 85 95
Width: 1453
VWidth: 0
GlyphClass: 2
Flags: W
HStem: -24 150<520.949 930.999> 1436 20G<170 342 1112 1283>
VStem: 170 172<317.911 1456> 1112 171<322.671 1456>
AnchorPoint: "top" 656 1536 basechar 0
AnchorPoint: "bottom" 826 0 basechar 0
AnchorPoint: "ogonek" 850 0 basechar 0
LayerCount: 2
UndoRedoHistory
Layer: 1
Undoes
EndUndoes
Redoes
EndRedoes
EndUndoRedoHistory
Fore
SplineSet
738 -24 m 0
 369 -24 170 157 170 541 c 2
 170 1456 l 1
 342 1456 l 1
 342 546 l 2
 342 260 476 126 737 126 c 0
 979 126 1112 279 1112 539 c 2
 1112 1456 l 1
 1283 1456 l 1
 1283 551 l 1
 1281 191 1086 -24 738 -24 c 0
EndSplineSet
EndChar

StartChar: V
Encoding: 86 86 106
Width: 1313
VWidth: 0
GlyphClass: 2
Flags: W
HStem: 1 21G<564.871 765.881> 1436 20G<17.5 212.786 1105.42 1295.5>
LayerCount: 2
UndoRedoHistory
Layer: 1
Undoes
EndUndoes
Redoes
EndRedoes
EndUndoRedoHistory
Fore
SplineSet
572.5 1 m 1
 17.5 1456 l 1
 205.5 1456 l 1
 617.5 325 l 1
 663.5 184 l 1
 711.5 324 l 1
 1112.5 1456 l 1
 1295.5 1456 l 1
 758.5 1 l 1
 572.5 1 l 1
EndSplineSet
EndChar

StartChar: W
Encoding: 87 87 107
Width: 2073
VWidth: 0
GlyphClass: 2
Flags: W
HStem: 1 21G<440.186 665.083 1408.95 1632.81> 1436 20G<23 214.601 950.677 1136.25 1864.49 2050>
AnchorPoint: "top" 1023 1536 basechar 0
AnchorPoint: "bottom" 1017 0 basechar 0
LayerCount: 2
UndoRedoHistory
Layer: 1
Undoes
EndUndoes
Redoes
EndRedoes
EndUndoRedoHistory
Fore
SplineSet
446 1 m 1
 23 1456 l 1
 209 1456 l 1
 519 349 l 1
 557 189 l 1
 607 349 l 1
 957 1456 l 1
 1130 1456 l 1
 1477 345 l 1
 1523 190 l 1
 1565 349 l 1
 1870 1456 l 1
 2050 1456 l 1
 1627 0 l 1
 1415 0 l 1
 1038 1247 l 1
 659 1 l 1
 446 1 l 1
EndSplineSet
EndChar

StartChar: X
Encoding: 88 88 112
Width: 1279
VWidth: 0
GlyphClass: 2
Flags: W
HStem: 0 21G<20 237.355 1044.58 1259> 1436 20G<59 277.89 1039.71 1249>
LayerCount: 2
UndoRedoHistory
Layer: 1
Undoes
EndUndoes
Redoes
EndRedoes
EndUndoRedoHistory
Fore
SplineSet
1058 0 m 1
 640 623 l 1
 224 0 l 1
 20 0 l 1
 544 741 l 1
 59 1456 l 1
 265 1456 l 1
 653 854 l 1
 1053 1456 l 1
 1249 1456 l 1
 751 742 l 1
 1259 0 l 1
 1058 0 l 1
EndSplineSet
EndChar

StartChar: Y
Encoding: 89 89 113
Width: 1235
VWidth: 0
GlyphClass: 2
Flags: W
HStem: 0 21G<530.5 702.5> 1436 20G<8.5 210.913 1023.98 1226.5>
VStem: 530.5 172<0 582>
AnchorPoint: "top" 620 1536 basechar 0
AnchorPoint: "bottom" 625 0 basechar 0
LayerCount: 2
UndoRedoHistory
Layer: 1
Undoes
EndUndoes
Redoes
EndRedoes
EndUndoRedoHistory
Fore
SplineSet
530.5 0 m 1
 530.5 582 l 1
 8.5 1456 l 1
 199.5 1456 l 1
 615.5 727 l 1
 1035.5 1456 l 1
 1226.5 1456 l 1
 702.5 585 l 1
 702.5 0 l 1
 530.5 0 l 1
EndSplineSet
EndChar

StartChar: Z
Encoding: 90 90 118
Width: 1209
VWidth: 0
GlyphClass: 2
Flags: W
HStem: 0 138<330 1133> 1318 138<134 909>
AnchorPoint: "top" 700 1536 basechar 0
AnchorPoint: "bottom" 676 0 basechar 0
LayerCount: 2
UndoRedoHistory
Layer: 1
Undoes
EndUndoes
Redoes
EndRedoes
EndUndoRedoHistory
Fore
SplineSet
102 0 m 1
 102 92 l 1
 909 1318 l 1
 134 1318 l 1
 134 1456 l 1
 1141 1456 l 1
 1141 1368 l 1
 330 138 l 1
 1133 138 l 1
 1133 0 l 1
 102 0 l 1
EndSplineSet
EndChar

StartChar: a
Encoding: 97 97 122
Width: 1205
VWidth: 0
GlyphClass: 2
Flags: W
HStem: -22 136<403.818 696.956 1044.81 1126> 916 136<490.677 843.646>
VStem: 112 170<248.789 676.978> 846 164<274.651 897.669>
AnchorPoint: "top" 637 1152 basechar 0
AnchorPoint: "bottom" 616 0 basechar 0
AnchorPoint: "ogonek" 994 0 basechar 0
LayerCount: 2
UndoRedoHistory
Layer: 1
Undoes
EndUndoes
Redoes
EndRedoes
EndUndoRedoHistory
Fore
SplineSet
513 -22 m 0
 278 -22 112 162 112 438 c 0
 112 804 339 1052 664 1052 c 0
 791 1052 930 1018 1010 966 c 1
 1010 278 l 2
 1010 175 1040 121 1155 121 c 1
 1126 -14 l 1
 966 -14 892 49 865 161 c 1
 799 48 662 -22 513 -22 c 0
537 114 m 0
 722 114 846 260 846 453 c 2
 846 881 l 1
 806 902 733 916 661 916 c 0
 434 916 282 726 282 448 c 0
 282 248 384 114 537 114 c 0
EndSplineSet
EndChar

StartChar: acute
Encoding: 180 180 126
Width: 617
VWidth: 0
GlyphClass: 2
Flags: W
HStem: 1136 320
VStem: 96 438
LayerCount: 2
UndoRedoHistory
Layer: 1
Undoes
EndUndoes
Redoes
EndRedoes
EndUndoRedoHistory
Fore
SplineSet
96 1136 m 1
 322 1456 l 1
 534 1456 l 1
 226 1136 l 1
 96 1136 l 1
EndSplineSet
EndChar

StartChar: ae
Encoding: 230 230 129
Width: 1716
VWidth: 0
GlyphClass: 2
Flags: W
HStem: -22 136<319.256 639.633 1087.16 1452.23> 445 121<921 1278.89> 490 119<359.751 773> 916 136<308.387 674.853 1087.46 1380.64>
VStem: 91 169<171.665 405.672> 773 146<609 794> 1428 163<663.473 867.371>
LayerCount: 2
UndoRedoHistory
Layer: 1
Undoes
EndUndoes
Redoes
EndRedoes
EndUndoRedoHistory
Fore
SplineSet
451 -22 m 0xbe
 232 -22 91 96 91 286 c 0
 91 615 445 609 773 609 c 1
 773 632 l 2
 773 831 667 916 531 916 c 0
 422 916 309 898 198 798 c 1
 130 908 l 1
 273 1021 394 1052 541 1052 c 0
 707 1052 845 960 887 810 c 1
 917 663 948 383 863 234 c 1
 795 99 671 -22 451 -22 c 0xbe
474 114 m 0
 694 114 775 276 775 493 c 1
 637 490 l 2
 452 485 260 465 260 294 c 0
 260 167 347 114 474 114 c 0
1246 -22 m 0
 973 -22 792 168 792 505 c 0
 792 803 930 1052 1247 1052 c 0
 1454 1052 1591 922 1591 755 c 0
 1591 510 1253 445 921 445 c 1xde
 945 233 1073 114 1257 114 c 0
 1408 114 1499 179 1564 232 c 1
 1632 122 l 1
 1512 25 1402 -22 1246 -22 c 0
919 566 m 1
 1152 566 1428 597 1428 758 c 0
 1428 852 1363 916 1248 916 c 0
 1082 916 933 794 919 566 c 1
EndSplineSet
EndChar

StartChar: ampersand
Encoding: 38 38 132
Width: 1576
VWidth: 0
GlyphClass: 2
Flags: W
HStem: -24 150<454.775 857.681> 1349 134<534.44 790.724>
VStem: 155 170<253.108 566.86> 328 157<1026.12 1299.97> 840 154<1067.1 1300.61> 1230 157<611.059 869>
LayerCount: 2
UndoRedoHistory
Layer: 1
Undoes
EndUndoes
Redoes
EndRedoes
EndUndoRedoHistory
Fore
SplineSet
655 -24 m 0
 366 -24 155 139 155 401 c 0
 155 658 365 766 504 858 c 1
 423 948 328 1041 328 1190 c 0
 328 1390 475 1483 655 1483 c 0
 850 1483 994 1376 994 1190 c 0
 994 1014 836 901 713 825 c 1
 1092 401 l 1
 1153 496 1199 622 1219 761 c 0
 1226 806 1230 848 1230 890 c 1
 1387 869 l 1
 1379 629 1300 430 1197 286 c 1
 1266 210 1327 151 1430 115 c 0
 1459 105 1494 96 1533 87 c 1
 1409 -12 l 1
 1269 10 1193 101 1112 187 c 1
 1005 71 866 -24 655 -24 c 0
652 126 m 0
 824 126 926 197 1013 292 c 1
 595 755 l 1
 465 681 325 588 325 409 c 0
 325 203 482 126 652 126 c 0
619 921 m 1
 719 981 840 1065 840 1186 c 0
 840 1296 761 1349 663 1349 c 0
 563 1349 485 1297 485 1186 c 0
 485 1057 546 994 619 921 c 1
EndSplineSet
EndChar

StartChar: approxequal
Encoding: 8776 8776 134
Width: 1328
VWidth: 0
GlyphClass: 2
Flags: W
HStem: 262 118<776.648 988.082> 426 120<340.576 579.163> 634 118<764.126 986.437> 799 118<341.155 574.99>
VStem: 164 114<285.97 358.379 658.052 733.069> 1055 110<453.483 521.649 824.815 893.584>
LayerCount: 2
UndoRedoHistory
Layer: 1
Undoes
EndUndoes
Redoes
EndRedoes
EndUndoRedoHistory
Fore
SplineSet
278 261 m 1
 164 289 l 1
 199 433 293 546 455 546 c 0
 654.989 546 783.335 380 889 380 c 0
 985 380 1025 463 1055 546 c 1
 1165 518 l 1
 1132 375 1050 262 883 262 c 0
 697.512 262 576.365 426 452 426 c 0
 349 426 303 349 278 261 c 1
277 634 m 1
 162 661 l 1
 195 808 289 917 453 917 c 0
 635.973 917 773.658 752 887 752 c 0
 984 752 1024 832 1053 918 c 1
 1163 890 l 1
 1133 745 1047 634 881 634 c 0
 697.06 634 578.235 799 449 799 c 0
 347 799 302 721 277 634 c 1
EndSplineSet
EndChar

StartChar: asciicircum
Encoding: 94 94 136
Width: 1304
VWidth: 0
GlyphClass: 2
Flags: W
LayerCount: 2
UndoRedoHistory
Layer: 1
Undoes
EndUndoes
Redoes
EndRedoes
EndUndoRedoHistory
Fore
SplineSet
128 550 m 1
 600 1432 l 1
 697 1432 l 1
 1176 550 l 1
 1021 550 l 1
 647 1260 l 1
 284 550 l 1
 128 550 l 1
EndSplineSet
EndChar

StartChar: asciitilde
Encoding: 126 126 137
Width: 1298
VWidth: 0
GlyphClass: 2
Flags: W
HStem: 410 135<740.843 973.134> 571 134<320.577 580.835>
VStem: 132 115<433.144 488.583> 1041 125<620.606 688.473>
LayerCount: 2
UndoRedoHistory
Layer: 1
Undoes
EndUndoes
Redoes
EndRedoes
EndUndoRedoHistory
Fore
SplineSet
247 385 m 1
 132 440 l 1
 164.45 592.785 273.39 705 427 705 c 0
 486 705 540 683 587 664 c 0
 685.974 623.395 803.218 545 874 545 c 0
 970 545 1023 641 1041 723 c 1
 1166 684 l 1
 1128.94 527.814 1028.43 410 873 410 c 0
 823 410 773 433 733 452 c 0
 634.144 497.526 515.503 571 429 571 c 0
 323 571 267 475 247 385 c 1
EndSplineSet
EndChar

StartChar: asterisk
Encoding: 42 42 138
Width: 1120
VWidth: 0
GlyphClass: 2
Flags: W
HStem: 1436 20G<489 643>
LayerCount: 2
UndoRedoHistory
Layer: 1
Undoes
EndUndoes
Redoes
EndRedoes
EndUndoRedoHistory
Fore
SplineSet
734 742 m 1
 576 1008 l 1
 421 740 l 1
 297 815 l 1
 494 1063 l 1
 202 1151 l 1
 243 1276 l 1
 525 1153 l 1
 489 1456 l 1
 643 1456 l 1
 622 1158 l 1
 854 1279 l 1
 918 1154 l 1
 656 1066 l 1
 860 815 l 1
 734 742 l 1
EndSplineSet
EndChar

StartChar: at
Encoding: 64 64 139
Width: 1859
VWidth: 0
GlyphClass: 2
Flags: W
HStem: -61 101<704.306 1247.66> 302 108<731.539 971.319> 310 75<1241.39 1431.79> 1088 95<859.869 1100.86> 1430 94<726.14 1213.29>
VStem: 150 127<468.944 972.859> 526 139<478.915 857.724> 1133 99<393.243 525> 1621 112<598.895 1058.12>
LayerCount: 2
UndoRedoHistory
Layer: 1
Undoes
EndUndoes
Redoes
EndRedoes
EndUndoRedoHistory
Fore
SplineSet
966 -61 m 0xbf80
 508 -61 150 264 150 727 c 0
 150 1191 520 1524 970 1524 c 0
 1384 1524 1733 1253 1733 839 c 0
 1733 525 1532 310 1311 310 c 0xbf80
 1193 310 1133 399 1133 525 c 1
 1077 392 937 302 826 302 c 0xdf80
 607 302 526 493 526 655 c 0
 526 941 751 1183 993 1183 c 0
 1095 1183 1176 1136 1213 1067 c 1
 1231 1152 l 1
 1371 1152 l 1
 1285 756 1232 541 1232 471 c 0
 1232 415 1253 385 1311 385 c 0
 1482 385 1621 573 1621 842 c 0
 1621 1207 1311 1430 968 1430 c 0
 573 1430 277 1128 277 725 c 0
 277 309 565 40 971 40 c 0
 1232 40 1365 124 1484 230 c 1
 1541 170 l 1
 1418 31 1218 -61 966 -61 c 0xbf80
852 410 m 0xdf80
 1032 410 1161 667 1161 866 c 0
 1161 981 1107 1088 996 1088 c 0
 813 1088 665 878 665 635 c 0
 665 488 741 410 852 410 c 0xdf80
EndSplineSet
EndChar

StartChar: b
Encoding: 98 98 141
Width: 1190
VWidth: 0
GlyphClass: 2
Flags: W
HStem: -22 136<339.368 722.662> 916 136<497.813 786.897> 1505 20G<172 337>
VStem: 172 165<135.951 758.251 868 1525> 908 170<328.987 771.714>
AnchorPoint: "top" 790 1536 basechar 0
AnchorPoint: "bottom" 826 0 basechar 0
LayerCount: 2
UndoRedoHistory
Layer: 1
Undoes
EndUndoes
Redoes
EndRedoes
EndUndoRedoHistory
Fore
SplineSet
570 -22 m 0
 337 -22 172 71 172 71 c 1
 172 1525 l 1
 337 1525 l 1
 337 868 l 1
 429 1002 542 1052 677 1052 c 0
 900 1052 1078 865 1078 545 c 0
 1078 215 874 -22 570 -22 c 0
564 114 m 0
 788 114 908 318 908 550 c 0
 908 793 796 916 654 916 c 0
 501 916 337 791 337 601 c 2
 337 151 l 1
 337 151 416 114 564 114 c 0
EndSplineSet
EndChar

StartChar: backslash
Encoding: 92 92 142
Width: 703
VWidth: 0
GlyphClass: 2
Flags: W
HStem: 0 21G<583.36 755> 1436 20G<-37 138.585>
LayerCount: 2
UndoRedoHistory
Layer: 1
Undoes
EndUndoes
Redoes
EndRedoes
EndUndoRedoHistory
Fore
SplineSet
592 0 m 1
 -37 1456 l 1
 130 1456 l 1
 755 0 l 1
 592 0 l 1
EndSplineSet
EndChar

StartChar: bar
Encoding: 124 124 143
Width: 964
VWidth: 0
GlyphClass: 2
Flags: W
VStem: 400 164<-200 1541>
LayerCount: 2
UndoRedoHistory
Layer: 1
Undoes
EndUndoes
Redoes
EndRedoes
EndUndoRedoHistory
Fore
SplineSet
400 -200 m 1
 400 1541 l 1
 564 1541 l 1
 564 -200 l 1
 400 -200 l 1
EndSplineSet
EndChar

StartChar: braceleft
Encoding: 123 123 144
Width: 744
VWidth: 0
GlyphClass: 2
Flags: W
HStem: -225 143<507.561 653> 560 135<79 197.433> 1337 143<511.629 654>
VStem: 271 167<-15.6602 483.75 771.668 1265.74>
CounterMasks: 1 e0
LayerCount: 2
UndoRedoHistory
Layer: 1
Undoes
EndUndoes
Redoes
EndRedoes
EndUndoRedoHistory
Fore
SplineSet
653 -225 m 1
 429 -219 271 -128 271 69 c 2
 271 319 l 2
 271 449 219 548 79 560 c 1
 79 695 l 1
 194 703 270 783 271 912 c 1
 271 1156 l 2
 271 1350 392 1480 654 1480 c 1
 654 1337 l 1
 541 1335 438 1281 438 1148 c 2
 438 875 l 2
 438 736 364 657 259 625 c 1
 376 582 438 467 438 360 c 2
 438 128 l 2
 438 -42 542 -82 653 -82 c 1
 653 -225 l 1
EndSplineSet
EndChar

StartChar: braceright
Encoding: 125 125 145
Width: 764
VWidth: 0
GlyphClass: 2
Flags: W
HStem: -225 143<131 273.371> 560 135<587.567 706> 1337 143<132 277.439>
VStem: 347 167<-10.7437 483.332 771.25 1270.66>
CounterMasks: 1 e0
LayerCount: 2
UndoRedoHistory
Layer: 1
Undoes
EndUndoes
Redoes
EndRedoes
EndUndoRedoHistory
Fore
SplineSet
132 1480 m 1
 356 1474 514 1383 514 1186 c 2
 514 936 l 2
 514 806 566 707 706 695 c 1
 706 560 l 1
 591 552 515 472 514 343 c 1
 514 99 l 2
 514 -95 393 -225 131 -225 c 1
 131 -82 l 1
 244 -80 347 -26 347 107 c 2
 347 380 l 2
 347 519 421 598 526 630 c 1
 409 673 347 788 347 895 c 2
 347 1127 l 2
 347 1297 243 1337 132 1337 c 1
 132 1480 l 1
EndSplineSet
EndChar

StartChar: bracketleft
Encoding: 91 91 146
Width: 638
VWidth: 0
GlyphClass: 2
Flags: W
HStem: -200 122<364 558> 1388 122<364 557>
VStem: 201 357<-200 -78 1388 1510> 201 163<-78 1388>
LayerCount: 2
UndoRedoHistory
Layer: 1
Undoes
EndUndoes
Redoes
EndRedoes
EndUndoRedoHistory
Fore
SplineSet
201 -200 m 1xe0
 201 1510 l 1xe0
 557 1510 l 1
 557 1388 l 1
 364 1388 l 1
 364 -78 l 1xd0
 558 -78 l 1
 558 -200 l 1
 201 -200 l 1xe0
EndSplineSet
EndChar

StartChar: bracketright
Encoding: 93 93 147
Width: 638
VWidth: 0
GlyphClass: 2
Flags: W
HStem: -200 122<120 313> 1388 122<119 313>
VStem: 120 356<-200 -78 1388 1510> 313 163<-78 1388>
LayerCount: 2
UndoRedoHistory
Layer: 1
Undoes
EndUndoes
Redoes
EndRedoes
EndUndoRedoHistory
Fore
SplineSet
476 1510 m 1xe0
 476 -200 l 1
 120 -200 l 1
 120 -78 l 1xe0
 313 -78 l 1
 313 1388 l 1xd0
 119 1388 l 1
 119 1510 l 1
 476 1510 l 1xe0
EndSplineSet
EndChar

StartChar: breve
Encoding: 728 728 148
Width: 639
VWidth: 0
GlyphClass: 2
Flags: W
HStem: 1221 106<209.393 431.789> 1436 20G<82 176.5 470 566>
VStem: 82 87<1370.1 1456> 480 86<1382.04 1456>
AnchorPoint: "top" 327 1046 mark 0
LayerCount: 2
UndoRedoHistory
Layer: 1
Undoes
EndUndoes
Redoes
EndRedoes
EndUndoRedoHistory
Fore
SplineSet
323 1221 m 0
 209 1221 95 1299 82 1456 c 1
 169 1456 l 1
 184 1369 250 1327 318 1327 c 0
 388 1327 460 1371 480 1456 c 1
 566 1456 l 1
 553 1299 438 1221 323 1221 c 0
EndSplineSet
EndChar

StartChar: brokenbar
Encoding: 166 166 149
Width: 510
VWidth: 0
GlyphClass: 2
Flags: W
VStem: 178 157<-491 393 677 1545>
LayerCount: 2
UndoRedoHistory
Layer: 1
Undoes
EndUndoes
Redoes
EndRedoes
EndUndoRedoHistory
Fore
SplineSet
178 -491 m 1
 178 393 l 1
 335 393 l 1
 335 -491 l 1
 178 -491 l 1
178 677 m 1
 178 1545 l 1
 335 1545 l 1
 335 677 l 1
 178 677 l 1
EndSplineSet
EndChar

StartChar: bullet
Encoding: 8226 8226 150
Width: 991
VWidth: 0
GlyphClass: 2
Flags: W
HStem: 427 625<338.191 673.182>
VStem: 177 649<575.72 897.607>
LayerCount: 2
UndoRedoHistory
Layer: 1
Undoes
EndUndoes
Redoes
EndRedoes
EndUndoRedoHistory
Fore
SplineSet
499 427 m 0
 298 427 177 574 177 736 c 0
 177 940 347 1052 504 1052 c 0
 706 1052 826 901 826 743 c 0
 826 546 690 427 499 427 c 0
EndSplineSet
EndChar

StartChar: c
Encoding: 99 99 151
Width: 1032
VWidth: 0
GlyphClass: 2
Flags: W
HStem: -22 136<456.648 802.174> 916 136<463.797 791.491>
VStem: 112 170<302.163 718.221>
AnchorPoint: "top" 597 1152 basechar 0
AnchorPoint: "bottom" 599 0 basechar 0
LayerCount: 2
UndoRedoHistory
Layer: 1
Undoes
EndUndoes
Redoes
EndRedoes
EndUndoRedoHistory
Fore
SplineSet
605 -22 m 0
 340 -22 112 179 112 511 c 0
 112 851 349 1052 611 1052 c 0
 726 1052 849 1015 939 928 c 1
 877 810 l 1
 807 878 712 916 624 916 c 0
 449 916 282 778 282 510 c 0
 282 253 435 114 619 114 c 0
 719 114 828 158 904 227 c 1
 960 102 l 1
 857 21 730 -22 605 -22 c 0
EndSplineSet
EndChar

StartChar: caron
Encoding: 711 711 153
Width: 709
VWidth: 0
GlyphClass: 2
Flags: W
HStem: 1133 323
VStem: 39 633
LayerCount: 2
UndoRedoHistory
Layer: 1
Undoes
EndUndoes
Redoes
EndRedoes
EndUndoRedoHistory
Fore
SplineSet
278 1133 m 1
 39 1456 l 1
 186 1456 l 1
 350 1241 l 1
 518 1456 l 1
 672 1456 l 1
 434 1133 l 1
 278 1133 l 1
EndSplineSet
EndChar

StartChar: cedilla
Encoding: 184 184 159
Width: 539
VWidth: 0
GlyphClass: 2
Flags: W
HStem: -396 83<68.439 327.063> -168 78<269 325.828>
VStem: 335 143<-302.853 -177.521>
AnchorPoint: "bottom" 280 0 mark 0
LayerCount: 2
UndoRedoHistory
Layer: 1
Undoes
EndUndoes
Redoes
EndRedoes
EndUndoRedoHistory
Fore
SplineSet
237 -396 m 0
 177 -396 116 -385 62 -374 c 1
 70 -289 l 1
 120 -301 167 -313 221 -313 c 0
 287 -313 335 -297 335 -241 c 0
 335 -182 286 -168 226 -168 c 0
 217 -168 200 -170 189 -171 c 2
 157 -173 l 1
 190 17 l 1
 287 17 l 1
 269 -90 l 1
 278 -90 l 1
 382 -95 478 -131 478 -239 c 0
 478 -359 358 -396 237 -396 c 0
EndSplineSet
EndChar

StartChar: cent
Encoding: 162 162 160
Width: 1180
VWidth: 0
GlyphClass: 2
Flags: W
HStem: -20 142<487.509 602 710 874.688> 904 145<491.922 602 710 857.723>
VStem: 154 173<298.659 723.675> 602 108<-235 -15.1607 122 904 1044.36 1281>
LayerCount: 2
UndoRedoHistory
Layer: 1
Undoes
EndUndoes
Redoes
EndRedoes
EndUndoRedoHistory
Fore
SplineSet
602 -235 m 1
 602 -20 l 1
 347 6 154 213 154 503 c 0
 154 805 326 1024 602 1049 c 1
 602 1281 l 1
 710 1281 l 1
 710 1049 l 1
 839 1039 941 991 1001 912 c 1
 924 801 l 1
 875 862 802 898 710 907 c 1
 710 120 l 1
 792 129 885 159 981 225 c 1
 1017 87 l 1
 911 23 805 -10 710 -20 c 1
 710 -235 l 1
 602 -235 l 1
602 122 m 1
 602 904 l 1
 422 874 327 714 327 508 c 0
 327 285 439 148 602 122 c 1
EndSplineSet
EndChar

StartChar: circumflex
Encoding: 710 710 161
Width: 709
VWidth: 0
GlyphClass: 2
Flags: W
HStem: 1132 324
VStem: 45 614
LayerCount: 2
UndoRedoHistory
Layer: 1
Undoes
EndUndoes
Redoes
EndRedoes
EndUndoRedoHistory
Fore
SplineSet
273 1456 m 1
 430 1456 l 1
 659 1132 l 1
 527 1132 l 1
 349 1348 l 1
 171 1132 l 1
 45 1132 l 1
 273 1456 l 1
EndSplineSet
EndChar

StartChar: colon
Encoding: 58 58 163
Width: 550
VWidth: 0
GlyphClass: 2
Flags: W
HStem: 0 210<169 386> 816 210<169 386>
VStem: 169 217<0 210 816 1026>
LayerCount: 2
UndoRedoHistory
Layer: 1
Undoes
EndUndoes
Redoes
EndRedoes
EndUndoRedoHistory
Fore
SplineSet
169 0 m 1
 169 210 l 1
 386 210 l 1
 386 0 l 1
 169 0 l 1
169 816 m 1
 169 1026 l 1
 386 1026 l 1
 386 816 l 1
 169 816 l 1
EndSplineSet
EndChar

StartChar: comma
Encoding: 44 44 164
Width: 550
VWidth: 0
GlyphClass: 2
Flags: W
HStem: -310 517<207 231>
VStem: 100 294
AnchorPoint: "bottom" 268 346 mark 0
LayerCount: 2
UndoRedoHistory
Layer: 1
Undoes
EndUndoes
Redoes
EndRedoes
EndUndoRedoHistory
Fore
SplineSet
100 -310 m 1
 207 207 l 1
 394 207 l 1
 231 -310 l 1
 100 -310 l 1
EndSplineSet
EndChar

StartChar: copyright
Encoding: 169 169 166
Width: 1736
VWidth: 0
GlyphClass: 2
Flags: W
HStem: -25 105<646.813 1087.93> 249 131<737.824 1100.14> 1080 128<733.478 1084.16> 1371 109<646.813 1087.93>
VStem: 116 121<488.678 955.064> 426 153<535.105 921.292> 1496 124<488.678 955.064>
LayerCount: 2
UndoRedoHistory
Layer: 1
Undoes
EndUndoes
Redoes
EndRedoes
EndUndoRedoHistory
Fore
SplineSet
893 249 m 0
 598 249 426 473 426 729 c 0
 426 1042 634 1208 903 1208 c 0
 1013 1208 1108 1174 1186 1105 c 1
 1156 985 l 1
 1086 1048 1000 1080 897 1080 c 0
 687 1080 579 920 579 733 c 0
 579 504 712 380 923 380 c 0
 1020 380 1094 411 1152 460 c 1
 1189 339 l 1
 1106 279 1008 249 893 249 c 0
868 1480 m 0
 1282 1480 1620 1141 1620 727 c 0
 1620 314 1282 -25 868 -25 c 0
 454 -25 116 314 116 727 c 0
 116 1141 454 1480 868 1480 c 0
867 80 m 0
 1218 80 1496 374 1496 725 c 0
 1496 1077 1218 1371 867 1371 c 0
 515 1371 237 1077 237 725 c 0
 237 374 515 80 867 80 c 0
EndSplineSet
EndChar

StartChar: currency
Encoding: 164 164 167
Width: 1223
VWidth: 0
GlyphClass: 2
Flags: W
HStem: 274 77<422.415 702.104> 965 83<423.068 706.221>
VStem: 185 88<497.843 817.413> 851 92<493.967 820.448>
LayerCount: 2
UndoRedoHistory
Layer: 1
Undoes
EndUndoes
Redoes
EndRedoes
EndUndoRedoHistory
Fore
SplineSet
980 210 m 1
 814 371 l 1
 748 310 660 274 564 274 c 0
 475 274 392 308 327 363 c 1
 167 195 l 1
 131 232 l 1
 290 398 l 1
 226 467 185 559 185 661 c 0
 185 754 221 840 279 908 c 1
 116 1065 l 1
 155 1104 l 1
 315 947 l 1
 384 1011 476 1050 573 1048 c 0
 661 1046 743 1012 806 956 c 1
 962 1120 l 1
 1002 1081 l 1
 844 917 l 1
 908 846 945 753 943 651 c 0
 941 557 906 473 849 408 c 1
 1017 246 l 1
 980 210 l 1
562 351 m 0
 724 351 847 482 851 651 c 0
 855 820 731 961 570 965 c 0
 408 969 273 827 273 658 c 0
 273 489 400 351 562 351 c 0
EndSplineSet
EndChar

StartChar: d
Encoding: 100 100 168
Width: 1237
VWidth: 0
GlyphClass: 2
Flags: W
HStem: -22 136<406.505 699.749 1049.94 1132> 916 136<484.793 848.337> 1506 20G<851 1016>
VStem: 112 171<253.336 692.469> 851 165<280.356 894.428 1014 1526>
AnchorPoint: "top" 790 1536 basechar 0
AnchorPoint: "bottom" 826 0 basechar 0
LayerCount: 2
UndoRedoHistory
Layer: 1
Undoes
EndUndoes
Redoes
EndRedoes
EndUndoRedoHistory
Fore
SplineSet
283 463 m 0
 283 233 394 114 537 114 c 0
 726 114 852 258 852 497 c 2
 852 880 l 1
 782 905 719 916 661 916 c 0
 420 916 283 718 283 463 c 0
871 161 m 1
 802 44 687 -22 524 -22 c 0
 290 -22 112 149 112 464 c 0
 112 859 375 1052 651 1052 c 0
 716 1052 786 1037 851 1014 c 1
 851 1526 l 1
 1016 1526 l 1
 1016 314 l 2
 1016 189 1030 121 1161 121 c 1
 1132 -14 l 1
 982 -14 898 44 871 161 c 1
EndSplineSet
EndChar

StartChar: dagger
Encoding: 8224 8224 169
Width: 1024
VWidth: 0
GlyphClass: 2
Flags: W
HStem: 0 21G<440 581> 904 122<117 440 581 921> 1436 20G<440 581>
VStem: 440 141<0 904 1026 1456>
LayerCount: 2
UndoRedoHistory
Layer: 1
Undoes
EndUndoes
Redoes
EndRedoes
EndUndoRedoHistory
Fore
SplineSet
440 0 m 1
 440 904 l 1
 117 904 l 1
 117 1026 l 1
 440 1026 l 1
 440 1456 l 1
 581 1456 l 1
 581 1026 l 1
 921 1026 l 1
 921 904 l 1
 581 904 l 1
 581 0 l 1
 440 0 l 1
EndSplineSet
EndChar

StartChar: daggerdbl
Encoding: 8225 8225 170
Width: 1023
VWidth: 0
GlyphClass: 2
Flags: W
HStem: 0 21G<444 588> 440 117<108 444 588 911> 988 122<114 444 588 918> 1436 20G<444 588>
VStem: 444 144<0 440 557 988 1110 1456>
LayerCount: 2
UndoRedoHistory
Layer: 1
Undoes
EndUndoes
Redoes
EndRedoes
EndUndoRedoHistory
Fore
SplineSet
444 0 m 1
 444 440 l 1
 108 440 l 1
 108 557 l 1
 444 557 l 1
 444 988 l 1
 114 988 l 1
 114 1110 l 1
 444 1110 l 1
 444 1456 l 1
 588 1456 l 1
 588 1110 l 1
 918 1110 l 1
 918 988 l 1
 588 988 l 1
 588 557 l 1
 911 557 l 1
 911 440 l 1
 588 440 l 1
 588 0 l 1
 444 0 l 1
EndSplineSet
EndChar

StartChar: dblgravecmb
Encoding: 783 783 171
Width: 4
VWidth: 0
GlyphClass: 2
Flags: W
HStem: 1143 313
VStem: -297 656
AnchorPoint: "top" 186 1048 mark 0
LayerCount: 2
UndoRedoHistory
Layer: 1
Undoes
EndUndoes
Redoes
EndRedoes
EndUndoRedoHistory
Fore
SplineSet
-22 1143 m 1
 -297 1456 l 1
 -121 1456 l 1
 93 1143 l 1
 -22 1143 l 1
241 1143 m 1
 -28 1456 l 1
 142 1456 l 1
 359 1143 l 1
 241 1143 l 1
EndSplineSet
EndChar

StartChar: degree
Encoding: 176 176 173
Width: 854
VWidth: 0
GlyphClass: 2
Flags: W
HStem: 815 121<295.613 555.412> 1359 121<296.455 553.177>
VStem: 91 132<1009.48 1282.99> 631 132<1011.12 1283.44>
LayerCount: 2
UndoRedoHistory
Layer: 1
Undoes
EndUndoes
Redoes
EndRedoes
EndUndoRedoHistory
Fore
SplineSet
427 936 m 0
 563 936 631 1043 631 1149 c 0
 631 1283 536 1359 427 1359 c 0
 292 1359 223 1255 223 1149 c 0
 223 1015 310 936 427 936 c 0
427 815 m 0
 222 815 91 975 91 1148 c 0
 91 1365 262 1480 427 1480 c 0
 634 1480 763 1322 763 1148 c 0
 763 930 590 815 427 815 c 0
EndSplineSet
EndChar

StartChar: dieresis
Encoding: 168 168 174
Width: 753
VWidth: 0
GlyphClass: 2
Flags: W
HStem: 1293 163<131 295 463 627>
VStem: 131 164<1293 1456> 463 164<1293 1456>
AnchorPoint: "top" 368 1152 mark 0
LayerCount: 2
UndoRedoHistory
Layer: 1
Undoes
EndUndoes
Redoes
EndRedoes
EndUndoRedoHistory
Fore
SplineSet
131 1293 m 1
 131 1456 l 1
 295 1456 l 1
 295 1293 l 1
 131 1293 l 1
463 1293 m 1
 463 1456 l 1
 627 1456 l 1
 627 1293 l 1
 463 1293 l 1
EndSplineSet
EndChar

StartChar: divide
Encoding: 247 247 175
Width: 1445
VWidth: 0
GlyphClass: 2
Flags: W
HStem: 80 210<622 830> 527 139<208 1234> 896 210<622 830>
VStem: 622 208<80 290 896 1106>
LayerCount: 2
UndoRedoHistory
Layer: 1
Undoes
EndUndoes
Redoes
EndRedoes
EndUndoRedoHistory
Fore
SplineSet
622 896 m 1
 622 1106 l 1
 830 1106 l 1
 830 896 l 1
 622 896 l 1
208 527 m 1
 208 666 l 1
 1234 666 l 1
 1234 527 l 1
 208 527 l 1
622 80 m 1
 622 290 l 1
 830 290 l 1
 830 80 l 1
 622 80 l 1
EndSplineSet
EndChar

StartChar: dollar
Encoding: 36 36 176
Width: 1244
VWidth: 0
GlyphClass: 2
Flags: W
HStem: -24 150<424.438 807.525> 1330 150<452.029 858.313>
VStem: 176.026 174<966.743 1236.98> 573 109<-196 1627> 919 169<232.327 528.484>
LayerCount: 2
UndoRedoHistory
Layer: 1
Undoes
EndUndoes
Redoes
EndRedoes
EndUndoRedoHistory
Fore
SplineSet
573 -196 m 1
 573 1627 l 1
 682 1627 l 1
 682 -196 l 1
 573 -196 l 1
EndSplineSet
Refer: 85 83 N 1 0 0 1 26 0 2
EndChar

StartChar: dotaccent
Encoding: 729 729 177
Width: 534
VWidth: 0
GlyphClass: 2
Flags: W
HStem: 1293 163<194 354>
VStem: 194 160<1293 1456>
AnchorPoint: "top" 315 1030 mark 0
LayerCount: 2
UndoRedoHistory
Layer: 1
Undoes
EndUndoes
Redoes
EndRedoes
EndUndoRedoHistory
Fore
SplineSet
194 1293 m 1
 194 1456 l 1
 354 1456 l 1
 354 1293 l 1
 194 1293 l 1
EndSplineSet
EndChar

StartChar: dotaccentcmb
Encoding: 775 775 178
Width: 534
VWidth: 0
GlyphClass: 2
Flags: W
HStem: 1246 163<194 354>
VStem: 194 160<1246 1409>
AnchorPoint: "top" 315 1030 mark 0
LayerCount: 2
UndoRedoHistory
Layer: 1
Undoes
EndUndoes
Redoes
EndRedoes
EndUndoRedoHistory
Fore
SplineSet
194 1246 m 1
 194 1409 l 1
 354 1409 l 1
 354 1246 l 1
 194 1246 l 1
EndSplineSet
EndChar

StartChar: dotlessi
Encoding: 305 305 179
Width: 633
VWidth: 0
GlyphClass: 2
Flags: W
HStem: 1006 20G<193 357>
VStem: 193 164<137.145 1026>
AnchorPoint: "top" 272 1023 basechar 0
LayerCount: 2
UndoRedoHistory
Layer: 1
Undoes
EndUndoes
Redoes
EndRedoes
EndUndoRedoHistory
Fore
SplineSet
659 26 m 1
 427 -69 193 -19 193 262 c 2
 193 1026 l 1
 357 1026 l 1
 357 267 l 2
 357 74 500 96 636 145 c 1
 659 26 l 1
EndSplineSet
EndChar

StartChar: dotlessj
Encoding: 567 567 180
Width: 558
VWidth: 0
GlyphClass: 2
Flags: W
HStem: -464 135<-38.3641 180.566> 1006 20G<216 381>
VStem: 216 165<-294.435 1026>
AnchorPoint: "top" 259 1152 basechar 0
LayerCount: 2
UndoRedoHistory
Layer: 1
Undoes
EndUndoes
Redoes
EndRedoes
EndUndoRedoHistory
Fore
SplineSet
101 -464 m 0
 44 -464 -17 -452 -50 -443 c 1
 -35 -311 l 1
 -35 -311 20 -329 78 -329 c 0
 189 -329 216 -269 216 -76 c 2
 216 1026 l 1
 381 1026 l 1
 381 -84 l 2
 381 -360 302 -464 101 -464 c 0
EndSplineSet
EndChar

StartChar: e
Encoding: 101 101 181
Width: 1082
VWidth: 0
GlyphClass: 2
Flags: W
HStem: -22 136<450.701 818.227> 445 121<287 644.891> 916 136<457.658 746.637>
VStem: 112 175<292.825 445 566 740.36> 794 163<663.473 867.371>
AnchorPoint: "top" 608 1152 basechar 0
AnchorPoint: "bottom" 656 0 basechar 0
AnchorPoint: "ogonek" 869 56 basechar 0
LayerCount: 2
UndoRedoHistory
Layer: 1
Undoes
EndUndoes
Redoes
EndRedoes
EndUndoRedoHistory
Fore
SplineSet
612 -22 m 0
 339 -22 112 168 112 505 c 0
 112 803 296 1052 613 1052 c 0
 820 1052 957 922 957 755 c 0
 957 510 619 445 287 445 c 1
 311 233 439 114 623 114 c 0
 774 114 865 179 930 232 c 1
 998 122 l 1
 878 25 768 -22 612 -22 c 0
285 566 m 1
 518 566 794 597 794 758 c 0
 794 852 729 916 614 916 c 0
 448.208 916 299 794 285 566 c 1
EndSplineSet
EndChar

StartChar: eight
Encoding: 56 56 189
Width: 1244
VWidth: 0
GlyphClass: 2
Flags: W
HStem: -24 144<440.641 798.679> 1344 136<453.824 790.817>
VStem: 148 177<235.459 542.681> 183 171<962.647 1250.83> 890 171<965.175 1253.47> 919 177<236.147 543.127>
LayerCount: 2
UndoRedoHistory
Layer: 1
Undoes
EndUndoes
Redoes
EndRedoes
EndUndoRedoHistory
Fore
SplineSet
621 -24 m 0xc4
 345 -24 148 133 148 377 c 0xe4
 148 590 277 714 450 767 c 1
 298 816 183 928 183 1121 c 0
 183 1381 395 1480 621 1480 c 0
 880 1480 1061 1345 1061 1121 c 0xd8
 1061 928 937 816 785 767 c 1
 958 714 1096 590 1096 377 c 0
 1096 101 886 -24 621 -24 c 0xc4
621 120 m 0
 803 120 919 219 919 390 c 0
 919 577 772 661 621 693 c 1
 458 659 325 563 325 390 c 0
 325 211 448 120 621 120 c 0
621 840 m 1
 772 869 890 947 890 1116 c 0
 890 1272 771 1344 621 1344 c 0
 460 1344 354 1259 354 1116 c 0xd8
 354 947 470 869 621 840 c 1
EndSplineSet
EndChar

StartChar: ellipsis
Encoding: 8230 8230 190
Width: 1604
VWidth: 0
GlyphClass: 2
Flags: W
HStem: 0 210<169 386 696 913 1223 1440>
VStem: 169 217<0 210> 696 217<0 210> 1223 217<0 210>
CounterMasks: 1 70
LayerCount: 2
UndoRedoHistory
Layer: 1
Undoes
EndUndoes
Redoes
EndRedoes
EndUndoRedoHistory
Fore
SplineSet
169 0 m 1
 169 210 l 1
 386 210 l 1
 386 0 l 1
 169 0 l 1
696 0 m 1
 696 210 l 1
 913 210 l 1
 913 0 l 1
 696 0 l 1
1223 0 m 1
 1223 210 l 1
 1440 210 l 1
 1440 0 l 1
 1223 0 l 1
EndSplineSet
EndChar

StartChar: emdash
Encoding: 8212 8212 192
Width: 2114
VWidth: 0
GlyphClass: 2
Flags: W
HStem: 489 137<7 2103>
LayerCount: 2
UndoRedoHistory
Layer: 1
Undoes
EndUndoes
Redoes
EndRedoes
EndUndoRedoHistory
Fore
SplineSet
7 489 m 1
 7 626 l 1
 2103 626 l 1
 2103 489 l 1
 7 489 l 1
EndSplineSet
EndChar

StartChar: endash
Encoding: 8211 8211 193
Width: 1071
VWidth: 0
GlyphClass: 2
Flags: W
HStem: 489 137<4 1070>
LayerCount: 2
UndoRedoHistory
Layer: 1
Undoes
EndUndoes
Redoes
EndRedoes
EndUndoRedoHistory
Fore
SplineSet
4 489 m 1
 4 626 l 1
 1070 626 l 1
 1070 489 l 1
 4 489 l 1
EndSplineSet
EndChar

StartChar: equal
Encoding: 61 61 195
Width: 1242
VWidth: 0
GlyphClass: 2
Flags: W
HStem: 403 137<190 1063> 809 138<189 1062>
LayerCount: 2
UndoRedoHistory
Layer: 1
Undoes
EndUndoes
Redoes
EndRedoes
EndUndoRedoHistory
Fore
SplineSet
190 403 m 1
 190 540 l 1
 1063 540 l 1
 1063 403 l 1
 190 403 l 1
189 809 m 1
 189 947 l 1
 1062 947 l 1
 1062 809 l 1
 189 809 l 1
EndSplineSet
EndChar

StartChar: eth
Encoding: 240 240 196
Width: 1173
VWidth: 0
GlyphClass: 2
Flags: W
HStem: -22 140<417.123 734.929> 775 140<418.852 739.862> 1383 107<456.951 491.881> 1436 20G<901.933 945.842>
VStem: 98 176<262.977 623.577>
LayerCount: 2
UndoRedoHistory
Layer: 1
Undoes
EndUndoes
Redoes
EndRedoes
EndUndoRedoHistory
Fore
SplineSet
589 -22 m 0xe8
 288 -22 98 185.789 98 446 c 0
 98 738.293 299 915 556 915 c 0
 729 915 833 838 902 723 c 1
 902 733 l 1
 903 1140 534 1340 392 1383 c 1
 467 1490 l 1
 693 1416 1047 1198 1077 672 c 0
 1100 267 926 -22 589 -22 c 0xe8
582 118 m 0
 798 118 887 310 887 536 c 1
 845 664 745 775 582 775 c 0
 391 775 274 638 274 441 c 0
 274 238.615 408 118 582 118 c 0
467 1156 m 1
 933 1456 l 1xd8
 994 1361 l 1
 529 1061 l 1
 467 1156 l 1
EndSplineSet
EndChar

StartChar: exclam
Encoding: 33 33 197
Width: 747
VWidth: 0
GlyphClass: 2
Flags: W
HStem: -6 223<287.695 469.305> 1436 20G<280 467>
VStem: 265 227<16.796 194.204> 280 187<1151.57 1456> 331 86<373 677.429>
LayerCount: 2
UndoRedoHistory
Layer: 1
Undoes
EndUndoes
Redoes
EndRedoes
EndUndoRedoHistory
Fore
SplineSet
378 -6 m 0xe0
 305 -6 265 46 265 106 c 0
 265 176 322 217 379 217 c 0
 452 217 492 165 492 105 c 0
 492 35 435 -6 378 -6 c 0xe0
331 373 m 1xc8
 280 1456 l 1
 467 1456 l 1xd0
 417 373 l 1
 331 373 l 1xc8
EndSplineSet
EndChar

StartChar: f
Encoding: 102 102 199
Width: 711
VWidth: 0
GlyphClass: 2
Flags: W
HStem: 0 21G<266 425> 919 107<64 266 425 671> 1429 126<474.483 741.658>
VStem: 266 159<0 919 1026 1375.75>
AnchorPoint: "top" 543 1464 basechar 0
AnchorPoint: "bottom" 366 0 basechar 0
LayerCount: 2
UndoRedoHistory
Layer: 1
Undoes
EndUndoes
Redoes
EndRedoes
EndUndoRedoHistory
Fore
SplineSet
425 0 m 1
 266 0 l 1
 266 919 l 1
 64 919 l 1
 64 1026 l 1
 266 1026 l 1
 266 1194 l 2
 266 1398 345 1555 569 1555 c 0
 624 1555 687 1546 759 1526 c 1
 737 1406 l 1
 681 1421 634 1429 594 1429 c 0
 472 1429 425 1355 425 1206 c 2
 425 1026 l 1
 671 1026 l 1
 671 919 l 1
 425 919 l 1
 425 0 l 1
EndSplineSet
EndChar

StartChar: f.alt
Encoding: 65537 -1 200
Width: 711
VWidth: 0
GlyphClass: 2
Flags: W
HStem: -404 135<173 240.078> 919 107<64 266 425 671> 1406 120<493.391 721>
VStem: 266 159<-239.674 919 1026 1344.44>
LayerCount: 2
UndoRedoHistory
Layer: 1
Undoes
EndUndoes
Redoes
EndRedoes
EndUndoRedoHistory
Fore
SplineSet
173 -404 m 1
 153 -269 l 1
 239 -255 266 -227 266 -76 c 2
 266 919 l 1
 64 919 l 1
 64 1026 l 1
 266 1026 l 1
 266 1194 l 2
 266 1447 404 1526 667 1526 c 2
 721 1526 l 1
 721 1406 l 1
 542 1406 425 1393 425 1196 c 2
 425 1026 l 1
 671 1026 l 1
 671 919 l 1
 425 919 l 1
 425 -83 l 2
 425 -215 403 -393 173 -404 c 1
EndSplineSet
EndChar

StartChar: five
Encoding: 53 53 201
Width: 1244
VWidth: 0
GlyphClass: 2
Flags: W
HStem: -24 147<428.393 788.947> 772 145<493.918 823.504> 1306 150<422 1000>
VStem: 254 147<814 1149.87> 269 153<970.128 1306> 936 160<276.897 650.353>
LayerCount: 2
UndoRedoHistory
Layer: 1
Undoes
EndUndoes
Redoes
EndRedoes
EndUndoRedoHistory
Fore
SplineSet
627 -24 m 0xf4
 466 -24 291 46 172 179 c 1
 263 295 l 1
 371 171 506 123 625 123 c 0
 827 123 936 267 936 468 c 0
 936 633 850 772 674 772 c 0
 550 772 452 718 411 656 c 1
 254 698 l 1xf4
 269 1456 l 1
 1000 1456 l 1
 1000 1306 l 1
 422 1306 l 1xec
 401 814 l 1
 463 880 576 917 671 917 c 0
 921 917 1096 738 1096 468 c 0
 1096 196 935 -24 627 -24 c 0xf4
EndSplineSet
EndChar

StartChar: florin
Encoding: 402 402 202
Width: 1088
VWidth: 0
GlyphClass: 2
Flags: W
HStem: -242 138<82.1772 261.969> 906 120<339 480 665 844> 1384 142<746.415 980.115>
LayerCount: 2
UndoRedoHistory
Layer: 1
Undoes
EndUndoes
Redoes
EndRedoes
EndUndoRedoHistory
Fore
SplineSet
176 -242 m 0
 145 -242 110 -237 72 -226 c 1
 84 -88 l 1
 111 -99 137 -104 162 -104 c 0
 274 -104 315 5 332 97 c 2
 480 906 l 1
 321 906 l 1
 339 1026 l 1
 501 1026 l 1
 534 1201 l 2
 570 1393 628 1526 845 1526 c 0
 895 1526 944 1518 988 1507 c 1
 980 1362 l 1
 947 1375 911 1384 871 1384 c 0
 756 1384 717 1326 700 1229 c 2
 665 1026 l 1
 862 1026 l 1
 844 906 l 1
 645 906 l 1
 522 210 l 2
 481 -18 424 -242 176 -242 c 0
EndSplineSet
EndChar

StartChar: four
Encoding: 52 52 203
Width: 1240
VWidth: 0
GlyphClass: 2
Flags: W
HStem: 0 21G<758 930> 370 139<362 758 930 1158> 1436 20G<586.909 764>
VStem: 758 172<0 370 509 868>
LayerCount: 2
UndoRedoHistory
Layer: 1
Undoes
EndUndoes
Redoes
EndRedoes
EndUndoRedoHistory
Fore
SplineSet
929 868 m 1
 929 509 l 1
 1158 509 l 1
 1158 370 l 1
 930 370 l 1
 930 0 l 1
 758 0 l 1
 758 370 l 1
 161 370 l 1
 161 499 l 1
 596 1456 l 1
 764 1456 l 1
 362 509 l 1
 758 509 l 1
 758 868 l 1
 929 868 l 1
EndSplineSet
EndChar

StartChar: four.alt
Encoding: 65538 -1 204
Width: 1240
VWidth: 0
GlyphClass: 2
Flags: W
HStem: 0 21G<774 946> 386 134<319 774 946 1163> 1436 20G<685.7 945>
VStem: 774 171<0 386 520 1287>
LayerCount: 2
UndoRedoHistory
Layer: 1
Undoes
EndUndoes
Redoes
EndRedoes
EndUndoRedoHistory
Fore
SplineSet
774 0 m 1
 774 386 l 1
 125 386 l 1
 125 515 l 1
 697.876 1456 l 1
 945 1456 l 1
 945 520 l 1
 1163 520 l 1
 1163 386 l 1
 946 386 l 1
 946 0 l 1
 774 0 l 1
319 520 m 1
 774 520 l 1
 774 1287 l 1
 650.897 1080.67 l 1
 319 520 l 1
EndSplineSet
EndChar

StartChar: fraction
Encoding: 8260 8260 205
Width: 982
VWidth: 0
GlyphClass: 2
Flags: W
HStem: 0 21G<0 162.415> 1436 20G<821.558 982>
LayerCount: 2
UndoRedoHistory
Layer: 1
Undoes
EndUndoes
Redoes
EndRedoes
EndUndoRedoHistory
Fore
SplineSet
0 0 m 1
 833 1456 l 1
 982 1456 l 1
 151 0 l 1
 0 0 l 1
EndSplineSet
EndChar

StartChar: g
Encoding: 103 103 206
Width: 1170
VWidth: 0
GlyphClass: 2
Flags: W
HStem: -494 137<302.188 694.78> -22 136<407.721 706> 916 136<493.002 851.222>
VStem: 115 170<251.799 685.305> 854 164<-189.839 153 272.252 893.706>
AnchorPoint: "top" 652 1027 basechar 0
AnchorPoint: "bottom" 588 -512 basechar 0
LayerCount: 2
UndoRedoHistory
Layer: 1
Undoes
EndUndoes
Redoes
EndRedoes
EndUndoRedoHistory
Fore
SplineSet
533 -494 m 0
 436 -494 308 -470 208 -433 c 1
 224 -280 l 1
 315 -326 435 -357 520 -357 c 0
 721 -357 854 -227 854 11 c 2
 854 153 l 1
 778 28 659 -22 523 -22 c 0
 283 -22 115 166 115 442 c 0
 115 824 337 1052 669 1052 c 0
 798 1052 938 1018 1018 966 c 1
 1018 32 l 2
 1018 -271 820 -494 533 -494 c 0
544 114 m 0
 748 114 854 273 854 476 c 2
 854 881 l 1
 814 893 739 916 666 916 c 0
 434 916 285 738 285 452 c 0
 285 252 388 114 544 114 c 0
EndSplineSet
EndChar

StartChar: gcommaaccent
Encoding: 291 291 209
Width: 1129
VWidth: 0
GlyphClass: 2
Flags: W
HStem: -494 137<294.212 689.248> -22 138<389.473 693.721> 907 141<483.147 842.222>
VStem: 100 170<249.345 674.991> 845 164<-205.132 133 275.642 888.669>
LayerCount: 2
UndoRedoHistory
Layer: 1
Undoes
EndUndoes
Redoes
EndRedoes
EndUndoRedoHistory
Fore
SplineSet
524 -494 m 0
 427 -494 299 -470 199 -433 c 1
 218 -280 l 1
 308 -326 426 -357 511 -357 c 0
 712 -357 845 -232 845 -44 c 2
 845 133 l 1
 773 39 642 -22 506 -22 c 0
 266 -22 100 162 100 438 c 0
 100 804 328 1048 660 1048 c 0
 789 1048 929 1014 1009 962 c 1
 1009 -23 l 2
 1009 -306 811 -494 524 -494 c 0
530 116 m 0
 719 116 845 261 845 453 c 2
 845 872 l 1
 805 893 730 907 657 907 c 0
 425 907 270 723 270 448 c 0
 270 249 374 116 530 116 c 0
426 1162 m 1
 583 1625 l 1
 709 1625 l 1
 606 1162 l 1
 426 1162 l 1
EndSplineSet
EndChar

StartChar: germandbls
Encoding: 223 223 211
Width: 1263
VWidth: 0
GlyphClass: 2
Flags: W
HStem: -22 131<648.424 932.995> 0 21G<183.962 349> 1351 129<464.175 748.961>
VStem: 184 165<0 1225.82> 819 177<1023.54 1285.27> 1024 157<198.787 480.096>
LayerCount: 2
UndoRedoHistory
Layer: 1
Undoes
EndUndoes
Redoes
EndRedoes
EndUndoRedoHistory
Fore
SplineSet
1181 341 m 0x7c
 1181 102 988 -22 800 -22 c 0
 656 -22 551 47 479 138 c 1
 544 243 l 1
 605 173 687 109 796 109 c 0xbc
 919 109 1024 199 1024 324 c 0
 1024 580 770 616 585 713 c 0
 514 750 511 838 604 881 c 0
 750 948 819 1064 819 1164 c 0
 819 1266 747 1351 611 1351 c 0
 421 1351 344 1197 345 1007 c 2
 349 0 l 1
 184 0 l 1
 182 1040 l 2
 182 1325 347 1480 612 1480 c 0
 877 1480 996 1329 996 1168 c 0
 996 1026 902 876 735 819 c 0
 695 805 685 790 738 775 c 0
 986 704 1181 601 1181 341 c 0x7c
EndSplineSet
EndChar

StartChar: grave
Encoding: 96 96 212
Width: 603
VWidth: 0
GlyphClass: 2
Flags: W
HStem: 1160 320
VStem: 71 461
LayerCount: 2
UndoRedoHistory
Layer: 1
Undoes
EndUndoes
Redoes
EndRedoes
EndUndoRedoHistory
Fore
SplineSet
403 1160 m 1
 71 1480 l 1
 285 1480 l 1
 532 1160 l 1
 403 1160 l 1
EndSplineSet
EndChar

StartChar: greater
Encoding: 62 62 214
Width: 1411
VWidth: 0
GlyphClass: 2
Flags: W
LayerCount: 2
UndoRedoHistory
Layer: 1
Undoes
EndUndoes
Redoes
EndRedoes
EndUndoRedoHistory
Fore
SplineSet
232 58 m 1
 232 212 l 1
 1000 555 l 1
 237 926 l 1
 237 1078 l 1
 1221 594 l 1
 1221 505 l 1
 232 58 l 1
EndSplineSet
EndChar

StartChar: greaterequal
Encoding: 8805 8805 215
Width: 1339
VWidth: 0
GlyphClass: 2
Flags: W
HStem: 0 122<171 1160>
LayerCount: 2
UndoRedoHistory
Layer: 1
Undoes
EndUndoes
Redoes
EndRedoes
EndUndoRedoHistory
Fore
SplineSet
171 0 m 1
 171 122 l 1
 1160 122 l 1
 1160 0 l 1
 171 0 l 1
206 1252 m 1
 1141 779 l 1
 1141 699 l 1
 202 249 l 1
 202 390 l 1
 963 738 l 1
 206 1112 l 1
 206 1252 l 1
EndSplineSet
EndChar

StartChar: guillemotleft
Encoding: 171 171 216
Width: 1153
VWidth: 0
GlyphClass: 2
Flags: W
LayerCount: 2
UndoRedoHistory
Layer: 1
Undoes
EndUndoes
Redoes
EndRedoes
EndUndoRedoHistory
Fore
SplineSet
494 173 m 1
 226 543 l 1
 500 916 l 1
 653 916 l 1
 396 543 l 1
 645 173 l 1
 494 173 l 1
853 173 m 1
 591 543 l 1
 858 916 l 1
 1017 916 l 1
 754 543 l 1
 1010 173 l 1
 853 173 l 1
EndSplineSet
EndChar

StartChar: guillemotright
Encoding: 187 187 217
Width: 1152
VWidth: 0
GlyphClass: 2
Flags: W
LayerCount: 2
UndoRedoHistory
Layer: 1
Undoes
EndUndoes
Redoes
EndRedoes
EndUndoRedoHistory
Fore
SplineSet
726 916 m 1
 995 544 l 1
 721 173 l 1
 570 173 l 1
 823 544 l 1
 577 916 l 1
 726 916 l 1
343 916 m 1
 605 544 l 1
 338 173 l 1
 178 173 l 1
 442 544 l 1
 185 916 l 1
 343 916 l 1
EndSplineSet
EndChar

StartChar: guilsinglleft
Encoding: 8249 8249 218
Width: 652
VWidth: 0
GlyphClass: 2
Flags: W
VStem: 115 433
LayerCount: 2
UndoRedoHistory
Layer: 1
Undoes
EndUndoes
Redoes
EndRedoes
EndUndoRedoHistory
Fore
SplineSet
384 171 m 1
 115 541 l 1
 389 914 l 1
 548 914 l 1
 285 541 l 1
 540 171 l 1
 384 171 l 1
EndSplineSet
EndChar

StartChar: guilsinglright
Encoding: 8250 8250 219
Width: 652
VWidth: 0
GlyphClass: 2
Flags: W
VStem: 143 434
LayerCount: 2
UndoRedoHistory
Layer: 1
Undoes
EndUndoes
Redoes
EndRedoes
EndUndoRedoHistory
Fore
SplineSet
306 914 m 1
 577 542 l 1
 300 171 l 1
 143 171 l 1
 405 542 l 1
 151 914 l 1
 306 914 l 1
EndSplineSet
EndChar

StartChar: h
Encoding: 104 104 220
Width: 1233
VWidth: 0
GlyphClass: 2
Flags: W
HStem: -20 130<1066.63 1168> 0 21G<164 328> 916 136<504.445 786.886> 1506 20G<164 328>
VStem: 164 164<0 733.317 867 1526> 866 164<144.758 820.257>
AnchorPoint: "top" 737 1260 basechar 0
AnchorPoint: "bottom" 645 0 basechar 0
LayerCount: 2
UndoRedoHistory
Layer: 1
Undoes
EndUndoes
Redoes
EndRedoes
EndUndoRedoHistory
Fore
SplineSet
1168 -20 m 1xbc
 1155 -20 l 2xbc
 947 -20 866 74 866 294 c 2
 866 566 l 2
 866 812 808 916 660 916 c 0
 514 916 328 794 328 545 c 2
 328 0 l 1
 164 0 l 1x7c
 164 1526 l 1
 328 1526 l 1
 328 867 l 1
 395 984 535 1052 681 1052 c 0
 905 1052 1030 907 1030 569 c 2
 1030 320 l 2
 1030 172 1062 110 1165 110 c 2
 1189 110 l 1
 1168 -20 l 1xbc
EndSplineSet
EndChar

StartChar: hbar
Encoding: 295 295 221
Width: 1233
VWidth: 0
GlyphClass: 2
Flags: W
HStem: -20 130<1066.63 1168> 0 21<164 328> 916 136<504.445 786.886> 1206.9 134<55 606> 1506 20<164 328>
VStem: 164 164<0 733.317 867 1526> 866 164<144.758 820.257>
LayerCount: 2
UndoRedoHistory
Layer: 1
Undoes
EndUndoes
Redoes
EndRedoes
EndUndoRedoHistory
Fore
SplineSet
55 1206.9 m 1x3e
 55 1340.9 l 1
 606 1340.9 l 1
 606 1206.9 l 1
 55 1206.9 l 1x3e
EndSplineSet
Refer: 220 104 N 1 0 0 1 0 0 2
EndChar

StartChar: hungarumlaut
Encoding: 733 733 223
Width: 972
VWidth: 0
GlyphClass: 2
Flags: W
HStem: 1143 313
VStem: 172 656
AnchorPoint: "top" 316 1152 mark 0
LayerCount: 2
UndoRedoHistory
Layer: 1
Undoes
EndUndoes
Redoes
EndRedoes
EndUndoRedoHistory
Fore
SplineSet
172 1143 m 1
 389 1456 l 1
 559 1456 l 1
 290 1143 l 1
 172 1143 l 1
438 1143 m 1
 652 1456 l 1
 828 1456 l 1
 553 1143 l 1
 438 1143 l 1
EndSplineSet
EndChar

StartChar: hyphen
Encoding: 45 45 224
Width: 1247
VWidth: 0
GlyphClass: 2
Flags: W
HStem: 637 143<229 1028>
LayerCount: 2
UndoRedoHistory
Layer: 1
Undoes
EndUndoes
Redoes
EndRedoes
EndUndoRedoHistory
Fore
SplineSet
229 637 m 1
 229 780 l 1
 1028 780 l 1
 1028 637 l 1
 229 637 l 1
EndSplineSet
EndChar

StartChar: i
Encoding: 105 105 225
Width: 633
VWidth: 0
GlyphClass: 2
Flags: W
HStem: 1006 20G<193 357> 1257 199<186.676 368.324>
VStem: 170 215<1275 1438> 193 164<137.145 1026>
AnchorPoint: "bottom" 248 1 basechar 0
LayerCount: 2
UndoRedoHistory
Layer: 1
Undoes
EndUndoes
Redoes
EndRedoes
EndUndoRedoHistory
Fore
SplineSet
659 26 m 1xd0
 427 -69 193 -19 193 262 c 2
 193 1026 l 1
 357 1026 l 1
 357 267 l 2
 357 74 500 96 636 145 c 1
 659 26 l 1xd0
277 1257 m 0
 223 1257 170 1291 170 1357 c 0
 170 1423 224 1456 278 1456 c 0
 332 1456 385 1422 385 1356 c 0xe0
 385 1290 331 1257 277 1257 c 0
EndSplineSet
EndChar

StartChar: infinity
Encoding: 8734 8734 233
Width: 1683
VWidth: 0
GlyphClass: 2
Flags: W
HStem: 236 119<326.829 610.668 1079.36 1360.74> 829 115<322.523 598.347 1080.28 1364.47>
VStem: 106 130<444.534 743.607> 1442 139<440.391 750.908>
LayerCount: 2
UndoRedoHistory
Layer: 1
Undoes
EndUndoes
Redoes
EndRedoes
EndUndoRedoHistory
Fore
SplineSet
461 236 m 0
 233.748 236 106 416.398 106 612 c 0
 106 817.915 253.917 944 456 944 c 0
 651.514 944 750.132 823.463 847 692 c 1
 938.663 817.229 1049.12 944 1231 944 c 0
 1453.22 944 1581 793.06 1581 595 c 0
 1581 365.996 1407.53 236 1229 236 c 0
 1087 236 971 320 845 488 c 1
 751.946 362.635 628.95 236 461 236 c 0
464 355 m 0
 625.203 355 702.1 480.571 778 589 c 1
 700.425 705.362 604.075 829 454 829 c 0
 308.318 829 236 715.716 236 592 c 0
 236 444.198 337.214 355 464 355 c 0
1232 355 m 0
 1377 355 1442 466 1442 618 c 0
 1442 755.362 1341.58 829 1227 829 c 0
 1066.72 829 982.618 702.182 911 592 c 1
 998.941 473.022 1065.36 355 1232 355 c 0
EndSplineSet
EndChar

StartChar: integral
Encoding: 8747 8747 234
Width: 794
VWidth: 0
GlyphClass: 2
Flags: W
HStem: -259 135<45.3672 273.531> 1391 135<515.997 744.722>
VStem: 312 164<-84.3388 1349.7>
LayerCount: 2
UndoRedoHistory
Layer: 1
Undoes
EndUndoes
Redoes
EndRedoes
EndUndoRedoHistory
Fore
SplineSet
180 -259 m 0
 121 -259 92 -251 44 -238 c 1
 42 -109 l 1
 68 -119 115 -124 152 -124 c 0
 288 -124 312 -43 312 93 c 2
 312 1150 l 2
 312 1372 388 1526 610 1526 c 0
 665 1526 702 1515 746 1505 c 1
 748 1376 l 1
 722 1386 675 1391 638 1391 c 0
 502 1391 476 1310 476 1174 c 2
 476 117 l 2
 476 -105 402 -259 180 -259 c 0
EndSplineSet
EndChar

StartChar: j
Encoding: 106 106 237
Width: 558
VWidth: 0
GlyphClass: 2
Flags: W
HStem: -464 135<-38.3641 180.566> 1006 20G<216 381> 1257 199<209.676 391.324>
VStem: 193 215<1275 1438> 216 165<-294.435 1026>
AnchorPoint: "top" 700 1536 basechar 0
AnchorPoint: "bottom" 676 0 basechar 0
LayerCount: 2
UndoRedoHistory
Layer: 1
Undoes
EndUndoes
Redoes
EndRedoes
EndUndoRedoHistory
Fore
SplineSet
101 -464 m 0xe8
 44 -464 -17 -452 -50 -443 c 1
 -35 -311 l 1
 -35 -311 20 -329 78 -329 c 0
 189 -329 216 -269 216 -76 c 2
 216 1026 l 1
 381 1026 l 1
 381 -84 l 2
 381 -360 302 -464 101 -464 c 0xe8
300 1257 m 0
 246 1257 193 1291 193 1357 c 0
 193 1423 247 1456 301 1456 c 0
 355 1456 408 1422 408 1356 c 0xf0
 408 1290 354 1257 300 1257 c 0
EndSplineSet
EndChar

StartChar: k
Encoding: 107 107 239
Width: 1047
VWidth: 0
GlyphClass: 2
Flags: W
HStem: 0 21G<172 336 813.297 1052> 1006 20G<763.96 990> 1506 20G<172 336>
VStem: 172 164<0 1526>
AnchorPoint: "top" 767 1152 basechar 0
AnchorPoint: "bottom" 616 -1 basechar 0
LayerCount: 2
UndoRedoHistory
Layer: 1
Undoes
EndUndoes
Redoes
EndRedoes
EndUndoRedoHistory
Fore
SplineSet
1052 0 m 1
 835 0 l 1
 287 505 l 1
 783 1026 l 1
 990 1026 l 1
 498 513 l 1
 1052 0 l 1
336 0 m 1
 172 0 l 1
 172 1526 l 1
 336 1526 l 1
 336 0 l 1
EndSplineSet
EndChar

StartChar: k.alt
Encoding: 65539 -1 240
Width: 1068
VWidth: 0
GlyphClass: 2
Flags: W
HStem: 0 21G<188 325.989 859.865 1053> 1006 20G<795.27 985> 1506 20G<188 351>
VStem: 188 163<308 1526>
LayerCount: 2
UndoRedoHistory
Layer: 1
Undoes
EndUndoes
Redoes
EndRedoes
EndUndoRedoHistory
Fore
SplineSet
188 0 m 1
 188 1526 l 1
 351 1526 l 1
 351 308 l 1
 808 1026 l 1
 985 1026 l 1
 689 580 l 1
 1053 0 l 1
 872 0 l 1
 602 445 l 1
 313 0 l 1
 188 0 l 1
EndSplineSet
EndChar

StartChar: k.alt.2
Encoding: 65540 -1 241
Width: 1126
VWidth: 0
GlyphClass: 2
Flags: W
HStem: 1006 20G<845.799 919.2> 1506 20G<172 336>
VStem: 172 164<288 1526>
LayerCount: 2
UndoRedoHistory
Layer: 1
Undoes
EndUndoes
Redoes
EndRedoes
EndUndoRedoHistory
Fore
SplineSet
1120 131 m 1
 1108 -4 l 1
 939 -72 835 46 718 206 c 1
 582 390 l 1
 317 27 l 1
 262 -40 172 -24 172 60 c 2
 172 1526 l 1
 336 1526 l 1
 336 288 l 1
 860 1026 l 1
 1008 976 l 1
 671 512 l 1
 831 295 l 2
 912 185 993 60 1120 131 c 1
EndSplineSet
EndChar

StartChar: kgreenlandic
Encoding: 312 312 243
Width: 1071
VWidth: 0
GlyphClass: 2
Flags: W
HStem: 0 21G<188 353 822.193 1062> 1006 20G<188 353 780.938 1024>
VStem: 188 165<0 471 557 1026>
LayerCount: 2
UndoRedoHistory
Layer: 1
Undoes
EndUndoes
Redoes
EndRedoes
EndUndoRedoHistory
Fore
SplineSet
188 0 m 1
 188 1026 l 1
 353 1026 l 1
 353 557 l 1
 800 1026 l 1
 1024 1026 l 1
 508 512 l 1
 691 338 871 174 1062 0 c 1
 843 0 l 1
 353 471 l 1
 353 0 l 1
 188 0 l 1
EndSplineSet
EndChar

StartChar: l
Encoding: 108 108 244
Width: 711
VWidth: 0
GlyphClass: 2
Flags: W
HStem: -18 126<392.694 706.727> 1506 20G<180 344>
VStem: 180 164<158.766 1526>
AnchorPoint: "top" 266 1474 basechar 0
AnchorPoint: "bottom" 264 0 basechar 0
LayerCount: 2
UndoRedoHistory
Layer: 1
Undoes
EndUndoes
Redoes
EndRedoes
EndUndoRedoHistory
Fore
SplineSet
707 152 m 1
 732 35 l 1
 652 0 570 -18 496 -18 c 0
 319 -18 180 83 180 300 c 2
 180 1526 l 1
 344 1526 l 1
 344 292 l 2
 344 159 420 108 521 108 c 0
 578 108 643 125 707 152 c 1
EndSplineSet
EndChar

StartChar: less
Encoding: 60 60 249
Width: 1410
VWidth: 0
GlyphClass: 2
Flags: W
LayerCount: 2
UndoRedoHistory
Layer: 1
Undoes
EndUndoes
Redoes
EndRedoes
EndUndoRedoHistory
Fore
SplineSet
1174 48 m 1
 192 508 l 1
 192 595 l 1
 1178 1067 l 1
 1178 914 l 1
 411 552 l 1
 1174 200 l 1
 1174 48 l 1
EndSplineSet
EndChar

StartChar: lessequal
Encoding: 8804 8804 250
Width: 1340
VWidth: 0
GlyphClass: 2
Flags: W
HStem: 0 122<171 1164>
LayerCount: 2
UndoRedoHistory
Layer: 1
Undoes
EndUndoes
Redoes
EndRedoes
EndUndoRedoHistory
Fore
SplineSet
1135 247 m 1
 207 697 l 1
 207 778 l 1
 1135 1250 l 1
 1135 1110 l 1
 382 741 l 1
 1135 388 l 1
 1135 247 l 1
171 0 m 1
 171 122 l 1
 1164 122 l 1
 1164 0 l 1
 171 0 l 1
EndSplineSet
EndChar

StartChar: logicalnot
Encoding: 172 172 251
Width: 1441
VWidth: 0
GlyphClass: 2
Flags: W
HStem: 659 139<210 1082>
VStem: 1082 150<238 659>
LayerCount: 2
UndoRedoHistory
Layer: 1
Undoes
EndUndoes
Redoes
EndRedoes
EndUndoRedoHistory
Fore
SplineSet
1082 238 m 1
 1082 659 l 1
 210 659 l 1
 210 798 l 1
 1232 798 l 1
 1232 238 l 1
 1082 238 l 1
EndSplineSet
EndChar

StartChar: lozenge
Encoding: 9674 9674 252
Width: 1197
VWidth: 0
GlyphClass: 2
Flags: W
HStem: 0 21G<529.654 656.636> 1436 20G<537.838 664.043>
LayerCount: 2
UndoRedoHistory
Layer: 1
Undoes
EndUndoes
Redoes
EndRedoes
EndUndoRedoHistory
Fore
SplineSet
593 143 m 1
 946 716 l 1
 602 1310 l 1
 249 718 l 1
 593 143 l 1
542 0 m 1
 100 716 l 1
 550 1456 l 1
 652 1456 l 1
 1097 717 l 1
 644 0 l 1
 542 0 l 1
EndSplineSet
EndChar

StartChar: lslash
Encoding: 322 322 253
Width: 513
VWidth: 0
GlyphClass: 2
Flags: W
HStem: 0 21G<178 343> 1007 20G<480.471 514> 1472 20G<178 343>
VStem: 178 165<0 689 925 1492>
LayerCount: 2
UndoRedoHistory
Layer: 1
Undoes
EndUndoes
Redoes
EndRedoes
EndUndoRedoHistory
Fore
SplineSet
178 0 m 1
 178 689 l 1
 10 589 l 1
 10 726 l 1
 178 826 l 1
 178 1492 l 1
 343 1492 l 1
 343 925 l 1
 514 1027 l 1
 514 890 l 1
 343 788 l 1
 343 0 l 1
 178 0 l 1
EndSplineSet
EndChar

StartChar: m
Encoding: 109 109 254
Width: 1936
VWidth: 0
GlyphClass: 2
Flags: W
HStem: -14 135<1753.28 1867> 916 136<526.616 806.602 1207.92 1485.18> 1006 20G<194.938 253.5>
VStem: 211 164<0 748.001> 893 164<0 750.535> 1563 164<144.576 826.561>
AnchorPoint: "top" 952 1024 basechar 0
AnchorPoint: "bottom" 946 0 basechar 0
LayerCount: 2
UndoRedoHistory
Layer: 1
Undoes
EndUndoes
Redoes
EndRedoes
EndUndoRedoHistory
Fore
SplineSet
1867 -14 m 1xdc
 1842 -14 l 2
 1631 -14 1563 96 1563 324 c 2
 1563 579 l 2
 1563 825 1504 916 1354 916 c 0
 1208 916 1057 803 1057 536 c 2
 1057 0 l 1
 893 0 l 1
 893 566 l 2
 893 805 827 916 679 916 c 0xdc
 509 916 375 784 375 529 c 2
 375 0 l 1
 211 0 l 1
 211 680 l 2
 211 813 142 898 88 945 c 1
 230 1026 l 1xbc
 277 989 340 905 347 832 c 1
 420 967 536 1052 714 1052 c 0
 879 1052 971 945 1009 828 c 1
 1087 968 1223 1052 1380 1052 c 0
 1598 1052 1727 915 1727 577 c 2
 1727 353 l 2
 1727 180 1741 121 1863 121 c 2
 1894 121 l 1
 1867 -14 l 1xdc
EndSplineSet
EndChar

StartChar: macron
Encoding: 175 175 255
Width: 738
VWidth: 0
GlyphClass: 2
Flags: W
HStem: 1322 134<89 661>
VStem: 89 572<1322 1456>
AnchorPoint: "top" 373 1152 mark 0
LayerCount: 2
UndoRedoHistory
Layer: 1
Undoes
EndUndoes
Redoes
EndRedoes
EndUndoRedoHistory
Fore
SplineSet
89 1322 m 1
 89 1456 l 1
 661 1456 l 1
 661 1322 l 1
 89 1322 l 1
EndSplineSet
EndChar

StartChar: minus
Encoding: 8722 8722 256
Width: 1445
VWidth: 0
GlyphClass: 2
Flags: W
HStem: 496 137<208 1235>
LayerCount: 2
UndoRedoHistory
Layer: 1
Undoes
EndUndoes
Redoes
EndRedoes
EndUndoRedoHistory
Fore
SplineSet
208 496 m 1
 208 633 l 1
 1235 633 l 1
 1235 496 l 1
 208 496 l 1
EndSplineSet
EndChar

StartChar: multiply
Encoding: 215 215 257
Width: 1340
VWidth: 0
GlyphClass: 2
Flags: W
LayerCount: 2
UndoRedoHistory
Layer: 1
Undoes
EndUndoes
Redoes
EndRedoes
EndUndoRedoHistory
Fore
SplineSet
379 154 m 1
 276 257 l 1
 570 554 l 1
 276 851 l 1
 379 954 l 1
 670 657 l 1
 960 954 l 1
 1064 850 l 1
 769 554 l 1
 1064 258 l 1
 960 154 l 1
 670 450 l 1
 379 154 l 1
EndSplineSet
EndChar

StartChar: n
Encoding: 110 110 258
Width: 1275
VWidth: 0
GlyphClass: 2
Flags: W
HStem: -14 135<1093.99 1206> 916 136<531.742 815.365>
VStem: 211 164<0 744.956> 902 164<148.75 810.643>
AnchorPoint: "top" 700 1536 basechar 0
AnchorPoint: "bottom" 676 0 basechar 0
LayerCount: 2
UndoRedoHistory
Layer: 1
Undoes
EndUndoes
Redoes
EndRedoes
EndUndoRedoHistory
Fore
SplineSet
1233 121 m 1
 1206 -14 l 1
 1178 -14 l 2
 956 -14 902 112 902 338 c 2
 902 580 l 2
 902 826 824 916 679 916 c 0
 531 916 375 800 375 522 c 2
 375 0 l 1
 211 0 l 1
 211 683 l 2
 211 817 136 901 88 941 c 1
 230 1023 l 1
 282 978 327 911 338 833 c 1
 409 961 532 1052 712 1052 c 0
 908 1052 1066 918 1066 588 c 2
 1066 311 l 2
 1066 181 1089 121 1194 121 c 2
 1233 121 l 1
EndSplineSet
EndChar

StartChar: nine
Encoding: 57 57 262
Width: 1244
VWidth: 0
GlyphClass: 2
Flags: W
HStem: 0 21G<824 990> 623 135<421.365 667.427> 1337 143<507.969 857.492>
VStem: 177 171<837.681 1172.21> 824 166<0 1330>
LayerCount: 2
UndoRedoHistory
Layer: 1
Undoes
EndUndoes
Redoes
EndRedoes
EndUndoRedoHistory
Fore
SplineSet
990 1245 m 1
 968 806 729 623 519 623 c 0
 339 623 177 761 177 983 c 0
 177 1220 335 1480 647 1480 c 0
 800 1480 913 1441 990 1383 c 1
 990 1245 l 1
818 1306 m 1
 804 1315 749 1337 666 1337 c 0
 451 1337 348 1156 348 991 c 0
 348 851 427 758 540 758 c 0
 667 758 818 887 818 1173 c 2
 818 1306 l 1
824 0 m 1
 824 1330 l 1
 990 1330 l 1
 990 0 l 1
 824 0 l 1
EndSplineSet
EndChar

StartChar: nine.alt
Encoding: 65541 -1 263
Width: 1176
VWidth: 0
GlyphClass: 2
Flags: W
HStem: -24 142<336.536 683.047> 561 140<400.01 753.429> 1340 140<412.297 739.99>
VStem: 98 176<831.488 1194.17> 905 175<451.059 1130.33>
LayerCount: 2
UndoRedoHistory
Layer: 1
Undoes
EndUndoes
Redoes
EndRedoes
EndUndoRedoHistory
Fore
SplineSet
517 -24 m 0
 371 -24 280 21 193 104 c 1
 247 232 l 1
 318 155 409 118 520 118 c 0
 801 118 905 409 905 711 c 2
 905 735 l 1
 836 620 720 561 547 561 c 0
 263.607 561 98 753.634 98 1012 c 0
 98 1317.31 311 1480 581 1480 c 0
 950 1480 1080 1191.86 1080 786 c 0
 1080 334.935 885 -24 517 -24 c 0
572 701 m 0
 767.599 701 893 824.625 893 999 c 0
 893 1211.13 759.118 1340 573 1340 c 0
 378.15 1340 274 1193.27 274 1017 c 0
 274 820 381 701 572 701 c 0
EndSplineSet
EndChar

StartChar: nine.alt.2
Encoding: 65542 -1 264
Width: 1244
VWidth: 0
GlyphClass: 2
Flags: W
HStem: 515 144<456.178 784.846> 1331 150<463.516 834.822>
VStem: 142 172<805.487 1180.33> 971 167<803.764 1188.1>
LayerCount: 2
UndoRedoHistory
Layer: 1
Undoes
EndUndoes
Redoes
EndRedoes
EndUndoRedoHistory
Fore
SplineSet
545 -76 m 1
 415 0 l 1
 808 575 l 1
 800 569 728 515 622 515 c 0
 324 515 142 724 142 995 c 0
 142 1282 356 1481 635 1481 c 0
 979 1481 1138 1243 1138 991 c 0
 1138 865 1090 729 999 598 c 1
 545 -76 l 1
641 659 m 0
 860 659 971 791 971 992 c 0
 971 1202 872 1331 646 1331 c 0
 441 1331 314 1205 314 994 c 0
 314 821 397 659 641 659 c 0
EndSplineSet
EndChar

StartChar: notequal
Encoding: 8800 8800 265
Width: 1339
VWidth: 0
GlyphClass: 2
Flags: W
HStem: 325 120<170 471 656 1162> 728 121<170 670 854 1160>
LayerCount: 2
UndoRedoHistory
Layer: 1
Undoes
EndUndoes
Redoes
EndRedoes
EndUndoRedoHistory
Fore
SplineSet
465 46 m 1
 345 64 l 1
 471 325 l 1
 170 325 l 1
 170 445 l 1
 529 445 l 1
 670 728 l 1
 170 728 l 1
 170 849 l 1
 725 849 l 1
 856 1123 l 1
 978 1105 l 1
 854 849 l 1
 1160 849 l 1
 1162 728 l 1
 798 728 l 1
 656 445 l 1
 1162 445 l 1
 1162 325 l 1
 599 325 l 1
 465 46 l 1
EndSplineSet
EndChar

StartChar: numbersign
Encoding: 35 35 267
Width: 1268
VWidth: 0
GlyphClass: 2
Flags: W
HStem: 0 21G<244 380.398 650 782.441> 465 118<84 328 474 727 877 1115> 899 127<154 399 552 800 951 1178> 1435 20G<492.457 626 892.597 1029>
LayerCount: 2
UndoRedoHistory
Layer: 1
Undoes
EndUndoes
Redoes
EndRedoes
EndUndoRedoHistory
Fore
SplineSet
244 0 m 1
 328 465 l 1
 76 465 l 1
 84 583 l 1
 348 583 l 1
 399 899 l 1
 141 899 l 1
 154 1026 l 1
 420 1026 l 1
 496 1455 l 1
 626 1455 l 1
 552 1026 l 1
 823 1026 l 1
 896 1455 l 1
 1029 1455 l 1
 951 1026 l 1
 1192 1026 l 1
 1178 899 l 1
 929 899 l 1
 877 583 l 1
 1126 583 l 1
 1115 465 l 1
 859 465 l 1
 779 0 l 1
 650 0 l 1
 727 465 l 1
 456 465 l 1
 377 0 l 1
 244 0 l 1
474 583 m 1
 748 583 l 1
 800 899 l 1
 529 899 l 1
 474 583 l 1
EndSplineSet
EndChar

StartChar: o
Encoding: 111 111 268
Width: 1216
VWidth: 0
GlyphClass: 2
Flags: W
HStem: -22 136<453.007 765.771> 916 136<452.576 768.604>
VStem: 112 170<301.856 730.987> 933 171<296.854 732.125>
AnchorPoint: "top" 619 1152 basechar 0
AnchorPoint: "bottom" 826 0 basechar 0
AnchorPoint: "ogonek" 726 0 basechar 0
LayerCount: 2
UndoRedoHistory
Layer: 1
Undoes
EndUndoes
Redoes
EndRedoes
EndUndoRedoHistory
Fore
SplineSet
613 114 m 0
 807 114 933 277 933 515 c 0
 933 756 807 916 612 916 c 0
 414 916 282 755 282 513 c 0
 282 276 414 114 613 114 c 0
613 -22 m 0
 320 -22 112 191 112 511 c 0
 112 833 320 1052 612 1052 c 0
 900 1052 1104 834 1104 513 c 0
 1104 192 901 -22 613 -22 c 0
EndSplineSet
EndChar

StartChar: oe
Encoding: 339 339 273
Width: 1903
VWidth: 0
GlyphClass: 2
Flags: W
HStem: -22 136<453.007 766.72 1270.69 1639.23> 445 121<1108 1465.89> 916 136<452.576 770.414 1273.13 1567.64>
VStem: 112 170<301.856 730.987> 933 175<299.724 445 566 731.608> 1615 163<663.473 867.371>
LayerCount: 2
UndoRedoHistory
Layer: 1
Undoes
EndUndoes
Redoes
EndRedoes
EndUndoRedoHistory
Fore
SplineSet
1433 -22 m 0
 1262 -22 1108 63 1018 222 c 1
 932 67 788 -22 613 -22 c 0
 320 -22 112 191 112 511 c 0
 112 833 320 1052 612 1052 c 0
 789 1052 935 959 1021 801 c 1
 1104 954 1246 1052 1434 1052 c 0
 1641 1052 1778 922 1778 755 c 0
 1778 510 1440 445 1108 445 c 1
 1132 233 1260 114 1444 114 c 0
 1595 114 1686 179 1751 232 c 1
 1819 122 l 1
 1699 25 1589 -22 1433 -22 c 0
1106 566 m 1
 1339 566 1615 597 1615 758 c 0
 1615 852 1550 916 1435 916 c 0
 1269 916 1120 794 1106 566 c 1
613 114 m 0
 807 114 933 277 933 515 c 0
 933 756 807 916 612 916 c 0
 414 916 282 755 282 513 c 0
 282 276 414 114 613 114 c 0
EndSplineSet
EndChar

StartChar: ogonek
Encoding: 731 731 274
Width: 518
VWidth: 0
GlyphClass: 2
Flags: W
HStem: -390 109<209.575 450.837>
VStem: 58 141<-267.743 -112.487>
AnchorPoint: "ogonek" 308 0 mark 0
LayerCount: 2
UndoRedoHistory
Layer: 1
Undoes
EndUndoes
Redoes
EndRedoes
EndUndoRedoHistory
Fore
SplineSet
276 -390 m 0
 151.277 -390 58 -334.608 58 -225 c 0
 58 -96.697 174.45 -35.45 273 12 c 1
 402 0 l 1
 316.177 -52.2399 199 -117.375 199 -199 c 0
 199 -250 248 -281 299 -281 c 0
 363 -281 407 -268 453 -250 c 1
 453 -361 l 1
 407 -380 340 -390 276 -390 c 0
EndSplineSet
EndChar

StartChar: one
Encoding: 49 49 278
Width: 819
VWidth: 0
GlyphClass: 2
Flags: W
HStem: 0 21G<357 529> 1436 20G<357 529>
VStem: 357 172<0 1456>
LayerCount: 2
UndoRedoHistory
Layer: 1
Undoes
EndUndoes
Redoes
EndRedoes
EndUndoRedoHistory
Fore
SplineSet
529 0 m 1
 357 0 l 1
 357 1456 l 1
 529 1456 l 1
 529 0 l 1
EndSplineSet
EndChar

StartChar: one.alt
Encoding: 65543 -1 279
Width: 1258
VWidth: 0
GlyphClass: 2
Flags: W
HStem: 0 21G<668 840> 1436 20G<641 840>
VStem: 668 172<0 1288>
LayerCount: 2
UndoRedoHistory
Layer: 1
Undoes
EndUndoes
Redoes
EndRedoes
EndUndoRedoHistory
Fore
SplineSet
668 0 m 1
 668 1288 l 1
 602 1238 516 1190 410 1146 c 1
 369 1277 l 1
 485 1330 607 1405 675 1456 c 1
 840 1456 l 1
 840 0 l 1
 668 0 l 1
EndSplineSet
EndChar

StartChar: onehalf
Encoding: 189 189 280
Width: 2185
VWidth: 0
GlyphClass: 2
Flags: W
HStem: 0 119<1564 1955> 926 126<1501.78 1777.39> 1351 105<284 369>
VStem: 284 226<1351 1456> 369 141<426 1351> 1824 151<593.454 878.773>
LayerCount: 2
UndoRedoHistory
Layer: 1
Undoes
EndUndoes
Redoes
EndRedoes
EndUndoRedoHistory
Fore
SplineSet
499 0 m 1xe4
 1332 1456 l 1
 1481 1456 l 1
 650 0 l 1
 499 0 l 1xe4
369 426 m 1xec
 369 1351 l 1xec
 284 1351 l 1
 284 1456 l 1
 510 1456 l 1xf4
 510 426 l 1
 369 426 l 1xec
1667 1052 m 0
 1847 1052 1970 930 1975 747 c 0
 1979 597 1880 489 1756 344 c 2
 1564 119 l 1
 1955 119 l 1
 1955 0 l 1
 1396 0 l 1
 1396 126 l 1
 1674 451 l 2
 1781 577 1829 652 1824 752 c 0
 1819 861 1768 926 1663 926 c 0
 1524 926 1435 832 1435 833 c 2
 1377 950 l 1
 1377 950 1476 1052 1667 1052 c 0
EndSplineSet
Ligature2: "fracDiagonalFractionslookup0 subtable" one fraction two
Ligature2: "fracDiagonalFractionslookup0 subtable" one slash two
EndChar

StartChar: onequarter
Encoding: 188 188 281
Width: 2118
VWidth: 0
GlyphClass: 2
Flags: W
HStem: 0 21G<486 648.415 1606 1738> 264 99<1328 1606 1738 1926> 1006 20G<1517.24 1665> 1351 105<284 369>
VStem: 284 226<1351 1456> 369 141<426 1351> 1606 132<0 264 363 617>
LayerCount: 2
UndoRedoHistory
Layer: 1
Undoes
EndUndoes
Redoes
EndRedoes
EndUndoRedoHistory
Fore
SplineSet
486 0 m 1xf2
 1319 1456 l 1
 1468 1456 l 1
 637 0 l 1
 486 0 l 1xf2
369 426 m 1xf6
 369 1351 l 1xf6
 284 1351 l 1
 284 1456 l 1
 510 1456 l 1xfa
 510 426 l 1
 369 426 l 1xf6
1737 617 m 1
 1737 363 l 1
 1926 363 l 1
 1926 264 l 1
 1738 264 l 1
 1738 0 l 1
 1606 0 l 1
 1606 264 l 1
 1167 264 l 1
 1167 355 l 1
 1528 1026 l 1
 1665 1026 l 1
 1328 363 l 1
 1606 363 l 1
 1606 617 l 1
 1737 617 l 1
EndSplineSet
Ligature2: "fracDiagonalFractionslookup0 subtable" one fraction four
Ligature2: "fracDiagonalFractionslookup0 subtable" one slash four
EndChar

StartChar: ordmasculine
Encoding: 186 186 283
Width: 824
VWidth: 0
GlyphClass: 2
Flags: W
HStem: 771 108<287.192 550.733> 1373 107<285.319 549.448>
VStem: 63 140<967.738 1286.67> 637 138<965.27 1282.98>
LayerCount: 2
UndoRedoHistory
Layer: 1
Undoes
EndUndoes
Redoes
EndRedoes
EndUndoRedoHistory
Fore
SplineSet
421 771 m 0
 201 771 63 905 63 1128 c 0
 63 1357 213 1480 420 1480 c 0
 647 1480 775 1326 775 1125 c 0
 775 896 629 771 421 771 c 0
421 879 m 0
 558 879 637 983 637 1123 c 0
 637 1268 558 1373 418 1373 c 0
 281 1373 203 1268 203 1127 c 0
 203 981 279 879 421 879 c 0
EndSplineSet
EndChar

StartChar: oslash
Encoding: 248 248 284
Width: 1216
VWidth: 0
GlyphClass: 2
Flags: W
HStem: -22 136<453.007 765.771> 916 136<452.576 768.604>
VStem: 112 170<301.856 730.987> 933 171<296.854 732.125>
LayerCount: 2
UndoRedoHistory
Layer: 1
Undoes
EndUndoes
Redoes
EndRedoes
EndUndoRedoHistory
Fore
SplineSet
353 -261 m 1
 257 -229 l 1
 869 1277 l 1
 969 1245 l 1
 353 -261 l 1
EndSplineSet
Refer: 268 111 N 1 0 0 1 0 0 2
EndChar

StartChar: p
Encoding: 112 112 286
Width: 1223
VWidth: 0
GlyphClass: 2
Flags: W
HStem: -508 21G<205 369> -22 136<385.64 763.492> 916 136<520.988 810.84> 1006 20G<188.185 242>
VStem: 205 164<-508 24 148.576 736.266> 942 169<306.126 765.883>
AnchorPoint: "top" 790 1536 basechar 0
AnchorPoint: "bottom" 826 0 basechar 0
LayerCount: 2
UndoRedoHistory
Layer: 1
Undoes
EndUndoes
Redoes
EndRedoes
EndUndoRedoHistory
Fore
SplineSet
205 -508 m 1xec
 205 646 l 2
 205 812 131 907 82 945 c 1
 223 1026 l 1xdc
 261 997 317 923 332 829 c 1
 424 989 569 1052 697 1052 c 0
 954 1052 1111 853 1111 543 c 0
 1111 186 909 -22 619 -22 c 0
 541 -22 457 -7 369 24 c 1
 369 -508 l 1
 205 -508 l 1xec
368 166 m 1
 444 132 521 114 593 114 c 0
 786 114 942 239 942 541 c 0
 942 785 840 916 662 916 c 0xec
 516 916 368 790 368 508 c 2
 368 166 l 1
EndSplineSet
EndChar

StartChar: paragraph
Encoding: 182 182 287
Width: 1207
VWidth: 0
GlyphClass: 2
Flags: W
HStem: 0 21G<457 595 796 925> 1331 124<595.454 796 925 1012>
VStem: 126 469<961.251 1295.53> 457 138<0 830> 796 129<0 1331>
LayerCount: 2
UndoRedoHistory
Layer: 1
Undoes
EndUndoes
Redoes
EndRedoes
EndUndoRedoHistory
Fore
SplineSet
457 0 m 1xd8
 457 830 l 1xd8
 242 830 126 946 126 1134 c 0xe8
 126 1398 378 1455 631 1455 c 2
 1012 1455 l 1
 1012 1331 l 1
 925 1331 l 1
 925 0 l 1
 796 0 l 1
 796 1331 l 1
 595 1331 l 1
 595 0 l 1
 457 0 l 1xd8
EndSplineSet
EndChar

StartChar: parenleft
Encoding: 40 40 288
Width: 636
VWidth: 0
GlyphClass: 2
Flags: W
LayerCount: 2
UndoRedoHistory
Layer: 1
Undoes
EndUndoes
Redoes
EndRedoes
EndUndoRedoHistory
Fore
SplineSet
431 -214 m 1
 70 355 58 956 437 1551 c 1
 584 1551 l 1
 229 993 245 320 580 -214 c 1
 431 -214 l 1
EndSplineSet
EndChar

StartChar: parenright
Encoding: 41 41 289
Width: 636
VWidth: 0
GlyphClass: 2
Flags: W
LayerCount: 2
UndoRedoHistory
Layer: 1
Undoes
EndUndoes
Redoes
EndRedoes
EndUndoRedoHistory
Fore
SplineSet
86 -214 m 1
 421 320 437 993 82 1551 c 1
 229 1551 l 1
 608 956 596 355 235 -214 c 1
 86 -214 l 1
EndSplineSet
EndChar

StartChar: partialdiff
Encoding: 8706 8706 290
Width: 1153
VWidth: 0
GlyphClass: 2
Flags: W
HStem: -22 135<366.429 646.296> 874 133<439.737 748.348> 1346 134<383.183 735.002>
VStem: 93 169<228.572 664.68> 890 171<841 1163.07>
LayerCount: 2
UndoRedoHistory
Layer: 1
Undoes
EndUndoes
Redoes
EndRedoes
EndUndoRedoHistory
Fore
SplineSet
492 -22 m 0
 224 -22 93 177 93 425 c 0
 93 776 322 1007 583 1007 c 0
 727 1007 819 932 889 841 c 1
 889 861 890 895 890 916 c 0
 890 1193 780.539 1346 562 1346 c 0
 453 1346 366 1298 299 1251 c 1
 289 1389 l 1
 361 1439 468 1480 585 1480 c 0
 941.179 1480 1061 1192 1061 857 c 0
 1061 373 875 -22 492 -22 c 0
495 113 m 0
 755 113 841 389 872 660 c 1
 829 779 741 874 605 874 c 0
 375 874 262 671 262 422 c 0
 262 240 350 113 495 113 c 0
EndSplineSet
EndChar

StartChar: percent
Encoding: 37 37 291
Width: 1749
VWidth: 0
GlyphClass: 2
Flags: W
HStem: -24 113<1213.86 1457.49> 0 21G<346 512.294> 625 113<1213.58 1458.66> 718 113<292.857 536.495> 1367 113<292.581 537.66> 1436 20G<1233.64 1395>
VStem: 68 144<915.666 1275.41> 616 144<919.929 1282.98> 989 144<173.666 533.412> 1537 144<177.929 540.985>
LayerCount: 2
UndoRedoHistory
Layer: 1
Undoes
EndUndoes
Redoes
EndRedoes
EndUndoRedoHistory
Fore
SplineSet
346 0 m 1x47c0
 1246 1456 l 1
 1395 1456 l 1
 500 0 l 1
 346 0 l 1x47c0
1333 -24 m 0xa3c0
 1105 -24 989 149 989 354 c 0
 989 593 1133 738 1338 738 c 0
 1557 738 1681 585 1681 359 c 0
 1681 121 1537 -24 1333 -24 c 0xa3c0
415 831 m 0x1bc0
 556 831 616 956 616 1102 c 0
 616 1249 556 1367 416 1367 c 0
 274 1367 212 1242 212 1095 c 0
 212 940 277 831 415 831 c 0x1bc0
1336 89 m 0xa3c0
 1477 89 1537 214 1537 360 c 0
 1537 507 1477 625 1337 625 c 0
 1195 625 1133 500 1133 353 c 0
 1133 198 1198 89 1336 89 c 0xa3c0
412 718 m 0x1bc0
 184 718 68 891 68 1096 c 0
 68 1335 212 1480 417 1480 c 0
 636 1480 760 1327 760 1101 c 0
 760 863 616 718 412 718 c 0x1bc0
EndSplineSet
EndChar

StartChar: period
Encoding: 46 46 292
Width: 550
VWidth: 0
GlyphClass: 2
Flags: W
HStem: -16 211<172.416 350.584>
VStem: 154 215<3.98663 175.013>
LayerCount: 2
UndoRedoHistory
Layer: 1
Undoes
EndUndoes
Redoes
EndRedoes
EndUndoRedoHistory
Fore
SplineSet
261 -16 m 0
 192 -16 154 33 154 90 c 0
 154 156 208 195 262 195 c 0
 331 195 369 146 369 89 c 0
 369 23 315 -16 261 -16 c 0
EndSplineSet
EndChar

StartChar: periodcentered
Encoding: 183 183 293
Width: 455
VWidth: 0
GlyphClass: 2
Flags: W
HStem: 816 210<119 336>
VStem: 119 217<816 1026>
LayerCount: 2
UndoRedoHistory
Layer: 1
Undoes
EndUndoes
Redoes
EndRedoes
EndUndoRedoHistory
Fore
SplineSet
119 816 m 1
 119 1026 l 1
 336 1026 l 1
 336 816 l 1
 119 816 l 1
EndSplineSet
EndChar

StartChar: perthousand
Encoding: 8240 8240 294
Width: 2567
VWidth: 0
GlyphClass: 2
Flags: W
HStem: -24 113<1213.86 1457.49 2031.86 2275.49> 0 21<346 512.294> 625 113<1213.58 1458.66 2031.58 2276.66> 718 113<292.857 536.495> 1367 113<292.581 537.66> 1436 20<1233.64 1395>
VStem: 68 144<915.666 1275.41> 616 144<919.929 1282.98> 989 144<173.666 533.412> 1537 144<177.929 540.985> 1807 144<173.666 533.412> 2355 144<177.929 540.985>
LayerCount: 2
UndoRedoHistory
Layer: 1
Undoes
EndUndoes
Redoes
EndRedoes
EndUndoRedoHistory
Fore
SplineSet
2154 89 m 0xa3f0
 2295 89 2355 214 2355 360 c 0
 2355 507 2295 625 2155 625 c 0
 2013 625 1951 500 1951 353 c 0
 1951 198 2016 89 2154 89 c 0xa3f0
2151 -24 m 0
 1923 -24 1807 149 1807 354 c 0
 1807 593 1951 738 2156 738 c 0
 2375 738 2499 585 2499 359 c 0
 2499 121 2355 -24 2151 -24 c 0
EndSplineSet
Refer: 291 37 N 1 0 0 1 0 0 2
EndChar

StartChar: pi
Encoding: 960 960 295
Width: 1278
VWidth: 0
GlyphClass: 2
Flags: W
HStem: -22 123<1018.56 1179.12> 0 21G<170 397> 893 133<198.217 375 527 842 1001 1205>
VStem: 375 152<500.713 893> 842 159<114.814 893>
LayerCount: 2
UndoRedoHistory
Layer: 1
Undoes
EndUndoes
Redoes
EndRedoes
EndUndoRedoHistory
Fore
SplineSet
1052 -22 m 0xb8
 879 -22 842 90 842 265 c 2
 842 893 l 1
 527 893 l 1
 527 618 443 161 351 0 c 1
 170 0 l 1x78
 293 216 375 655 375 893 c 1
 281 893 174 854 107 782 c 1
 77 933 l 1
 156 993 278 1026 420 1026 c 2
 1205 1026 l 1
 1205 893 l 1
 1001 893 l 1
 1001 242 l 2
 1001 160 1015 101 1099 101 c 0
 1124 101 1150 105 1179 114 c 1
 1189 -8 l 1
 1144 -16 1099 -22 1052 -22 c 0xb8
EndSplineSet
EndChar

StartChar: plus
Encoding: 43 43 296
Width: 1243
VWidth: 0
GlyphClass: 2
Flags: W
HStem: 675 139<130 551 702 1123>
VStem: 551 149<202 675 814 1282>
LayerCount: 2
UndoRedoHistory
Layer: 1
Undoes
EndUndoes
Redoes
EndRedoes
EndUndoRedoHistory
Fore
SplineSet
551 202 m 1
 551 675 l 1
 130 675 l 1
 130 814 l 1
 554 814 l 1
 554 1282 l 1
 702 1282 l 1
 702 814 l 1
 1123 814 l 1
 1123 675 l 1
 700 675 l 1
 700 202 l 1
 551 202 l 1
EndSplineSet
EndChar

StartChar: plusminus
Encoding: 177 177 297
Width: 1451
VWidth: 0
GlyphClass: 2
Flags: W
HStem: 0 138<210 1242> 680 138<210 647 799 1238>
VStem: 647 149<308 680 818 1192>
LayerCount: 2
UndoRedoHistory
Layer: 1
Undoes
EndUndoes
Redoes
EndRedoes
EndUndoRedoHistory
Fore
SplineSet
649 308 m 1
 649 680 l 1
 210 680 l 1
 210 818 l 1
 647 818 l 1
 647 1192 l 1
 796 1192 l 1
 796 818 l 1
 1238 818 l 1
 1238 680 l 1
 799 680 l 1
 799 308 l 1
 649 308 l 1
210 0 m 1
 210 138 l 1
 1242 138 l 1
 1242 0 l 1
 210 0 l 1
EndSplineSet
EndChar

StartChar: product
Encoding: 8719 8719 298
Width: 1549
VWidth: 0
GlyphClass: 2
Flags: W
HStem: 0 21G<301 476 1092 1270> 1311 145<100 301 476 1092 1270 1449>
VStem: 301 175<0 1311> 1092 178<0 1311>
LayerCount: 2
UndoRedoHistory
Layer: 1
Undoes
EndUndoes
Redoes
EndRedoes
EndUndoRedoHistory
Fore
SplineSet
301 0 m 1
 301 1311 l 1
 100 1311 l 1
 100 1456 l 1
 1449 1456 l 1
 1449 1311 l 1
 1270 1311 l 1
 1270 0 l 1
 1092 0 l 1
 1092 1311 l 1
 476 1311 l 1
 476 0 l 1
 301 0 l 1
EndSplineSet
EndChar

StartChar: q
Encoding: 113 113 299
Width: 1189
VWidth: 0
GlyphClass: 2
Flags: W
HStem: -22 136<402.031 703> 916 136<490.002 848.222>
VStem: 112 170<248.789 682.047> 851 164<-386 153 272.252 893.706>
LayerCount: 2
UndoRedoHistory
Layer: 1
Undoes
EndUndoes
Redoes
EndRedoes
EndUndoRedoHistory
Fore
SplineSet
1005 -544 m 2
 948 -568 851 -558 851 -441 c 2
 851 153 l 1
 775 28 656 -22 520 -22 c 0
 280 -22 112 162 112 438 c 0
 112 820 334 1052 666 1052 c 0
 795 1052 935 1006 1015 954 c 1
 1015 -386 l 1
 1297 -268 l 1
 1322 -405 l 1
 1005 -544 l 2
541 114 m 0
 745 114 851 273 851 476 c 2
 851 881 l 1
 811 893 736 916 663 916 c 0
 431 916 282 734 282 448 c 0
 282 248 385 114 541 114 c 0
EndSplineSet
EndChar

StartChar: question
Encoding: 63 63 300
Width: 1035
VWidth: 0
GlyphClass: 2
Flags: W
HStem: 0 211<339.416 516.083> 1330 153<244.67 639.745>
VStem: 321 213<18.5098 191.013> 359 125<368 530.748> 726 169<944.326 1249.64>
LayerCount: 2
UndoRedoHistory
Layer: 1
Undoes
EndUndoes
Redoes
EndRedoes
EndUndoRedoHistory
Fore
SplineSet
359 368 m 1xd8
 359 730 726 789 726 1125 c 0
 726 1271 605 1328 471 1330 c 0
 371 1332 262 1305 186 1262 c 1
 186 1413 l 1
 266 1452 361 1483 467 1483 c 0
 744 1483 895 1338 895 1133 c 0
 895 760 484 678 484 368 c 1
 359 368 l 1xd8
428 0 m 0
 359 0 321 49 321 106 c 0
 321 172 375 211 429 211 c 0
 497 211 534 162 534 105 c 0xe8
 534 39 482 0 428 0 c 0
EndSplineSet
EndChar

StartChar: quotedbl
Encoding: 34 34 302
Width: 730
VWidth: 0
GlyphClass: 2
Flags: W
HStem: 931 525<168 277 467 575>
VStem: 132 466
LayerCount: 2
UndoRedoHistory
Layer: 1
Undoes
EndUndoes
Redoes
EndRedoes
EndUndoRedoHistory
Fore
SplineSet
168 931 m 1
 132 1456 l 1
 298 1456 l 1
 277 931 l 1
 168 931 l 1
467 931 m 1
 431 1456 l 1
 598 1456 l 1
 575 931 l 1
 467 931 l 1
EndSplineSet
EndChar

StartChar: quotedblbase
Encoding: 8222 8222 303
Width: 1034
VWidth: 0
GlyphClass: 2
Flags: W
HStem: -238 439<651 680 1009 1038>
VStem: 188 646
LayerCount: 2
UndoRedoHistory
Layer: 1
Undoes
EndUndoes
Redoes
EndRedoes
EndUndoRedoHistory
Fore
SplineSet
188 -238 m 1
 293 201 l 1
 475 201 l 1
 322 -238 l 1
 188 -238 l 1
547 -238 m 1
 651 201 l 1
 834 201 l 1
 680 -238 l 1
 547 -238 l 1
EndSplineSet
EndChar

StartChar: quotedblleft
Encoding: 8220 8220 304
Width: 1034
VWidth: 0
GlyphClass: 2
Flags: W
HStem: 1016 440<476 504 825 854>
VStem: 189 636
LayerCount: 2
UndoRedoHistory
Layer: 1
Undoes
EndUndoes
Redoes
EndRedoes
EndUndoRedoHistory
Fore
SplineSet
189 1016 m 1
 343 1456 l 1
 476 1456 l 1
 371 1016 l 1
 189 1016 l 1
538 1016 m 1
 692 1456 l 1
 825 1456 l 1
 721 1016 l 1
 538 1016 l 1
EndSplineSet
EndChar

StartChar: quotedblright
Encoding: 8221 8221 305
Width: 1034
VWidth: 0
GlyphClass: 2
Flags: W
HStem: 1016 440<322 351 649 677>
VStem: 218 613
LayerCount: 2
UndoRedoHistory
Layer: 1
Undoes
EndUndoes
Redoes
EndRedoes
EndUndoRedoHistory
Fore
SplineSet
218 1016 m 1
 322 1456 l 1
 504 1456 l 1
 351 1016 l 1
 218 1016 l 1
544 1016 m 1
 649 1456 l 1
 831 1456 l 1
 677 1016 l 1
 544 1016 l 1
EndSplineSet
EndChar

StartChar: quoteleft
Encoding: 8216 8216 306
Width: 563
VWidth: 0
GlyphClass: 2
Flags: W
HStem: 1016 440<294 322>
VStem: 140 286
LayerCount: 2
UndoRedoHistory
Layer: 1
Undoes
EndUndoes
Redoes
EndRedoes
EndUndoRedoHistory
Fore
SplineSet
426 1456 m 1
 322 1016 l 1
 140 1016 l 1
 294 1456 l 1
 426 1456 l 1
EndSplineSet
EndChar

StartChar: quoteright
Encoding: 8217 8217 307
Width: 563
VWidth: 0
GlyphClass: 2
Flags: W
HStem: 1016 440<255 282>
VStem: 150 286
LayerCount: 2
UndoRedoHistory
Layer: 1
Undoes
EndUndoes
Redoes
EndRedoes
EndUndoRedoHistory
Fore
SplineSet
150 1016 m 1
 255 1456 l 1
 436 1456 l 1
 282 1016 l 1
 150 1016 l 1
EndSplineSet
EndChar

StartChar: quotesinglbase
Encoding: 8218 8218 308
Width: 563
VWidth: 0
GlyphClass: 2
Flags: W
HStem: -238 439<241 268>
VStem: 135 287
LayerCount: 2
UndoRedoHistory
Layer: 1
Undoes
EndUndoes
Redoes
EndRedoes
EndUndoRedoHistory
Fore
SplineSet
135 -238 m 1
 241 201 l 1
 422 201 l 1
 268 -238 l 1
 135 -238 l 1
EndSplineSet
EndChar

StartChar: quotesingle
Encoding: 39 39 309
Width: 564
VWidth: 0
GlyphClass: 2
Flags: W
HStem: 994 462<235 349>
VStem: 199 166<1272.02 1456>
LayerCount: 2
UndoRedoHistory
Layer: 1
Undoes
EndUndoes
Redoes
EndRedoes
EndUndoRedoHistory
Fore
SplineSet
235 994 m 1
 199 1456 l 1
 365 1456 l 1
 349 994 l 1
 235 994 l 1
EndSplineSet
EndChar

StartChar: r
Encoding: 114 114 310
Width: 813
VWidth: 0
GlyphClass: 2
Flags: W
HStem: 0 21G<211 375> 907 141<506.241 785.371> 1006 20G<194.61 253>
VStem: 211 164<0 749.99>
AnchorPoint: "top" 487 1152 basechar 0
AnchorPoint: "bottom" 338 -3 basechar 0
LayerCount: 2
UndoRedoHistory
Layer: 1
Undoes
EndUndoes
Redoes
EndRedoes
EndUndoRedoHistory
Fore
SplineSet
211 0 m 1xd0
 211 693 l 2
 211 809 138 902 88 944 c 1
 229 1026 l 1xb0
 277 984 323 920 338 830 c 1
 390 958 517 1048 643 1048 c 0
 726 1048 761 1038 797 1028 c 1
 783 883 l 1
 766 889 723 907 638 907 c 0
 494 907 375 772 375 537 c 2
 375 0 l 1
 211 0 l 1xd0
EndSplineSet
EndChar

StartChar: radical
Encoding: 8730 8730 312
Width: 1238
VWidth: 0
GlyphClass: 2
Flags: W
HStem: 0 21G<543.541 686.291> 1436 20G<1001.72 1138>
LayerCount: 2
UndoRedoHistory
Layer: 1
Undoes
EndUndoes
Redoes
EndRedoes
EndUndoRedoHistory
Fore
SplineSet
551 0 m 1
 300 673 l 1
 128 645 l 1
 108 757 l 1
 401 808 l 1
 551 367 l 1
 613 162 l 1
 667 370 l 1
 1008 1456 l 1
 1138 1456 l 1
 680 0 l 1
 551 0 l 1
EndSplineSet
EndChar

StartChar: registered
Encoding: 174 174 315
Width: 1784
VWidth: 0
GlyphClass: 2
Flags: W
HStem: -25 105<646.813 1087.93> 684 119<717 845> 1072 120<715 1026.48> 1371 109<646.813 1087.93>
VStem: 116 121<488.678 955.064> 575 142<293 684 803 1072> 1054 149<838.133 1041.15> 1496 124<488.678 955.064>
LayerCount: 2
UndoRedoHistory
Layer: 1
Undoes
EndUndoes
Redoes
EndRedoes
EndUndoRedoHistory
Fore
SplineSet
868 1480 m 0
 1282 1480 1620 1141 1620 727 c 0
 1620 314 1282 -25 868 -25 c 0
 454 -25 116 314 116 727 c 0
 116 1141 454 1480 868 1480 c 0
867 80 m 0
 1218 80 1496 374 1496 725 c 0
 1496 1077 1218 1371 867 1371 c 0
 515 1371 237 1077 237 725 c 0
 237 374 515 80 867 80 c 0
715 803 m 1
 787 803 l 2
 919 803 1054 799 1054 935 c 0
 1054 1086 933 1072 786 1072 c 2
 715 1072 l 1
 715 803 l 1
717 293 m 1
 575 293 l 1
 575 1192 l 1
 789 1192 l 2
 1069 1192 1203 1116 1203 950 c 0
 1203 802 1106 731 980 706 c 1
 1221 293 l 1
 1060 293 l 1
 845 684 l 1
 717 684 l 1
 717 293 l 1
EndSplineSet
EndChar

StartChar: ring
Encoding: 730 730 316
Width: 616
VWidth: 0
GlyphClass: 2
Flags: W
HStem: 1120 75<232.66 383.383> 1406 74<232.66 383.383>
VStem: 118 89<1214.42 1387.82> 409 89<1214.42 1387.82>
AnchorPoint: "top" 316 1152 mark 0
LayerCount: 2
UndoRedoHistory
Layer: 1
Undoes
EndUndoes
Redoes
EndRedoes
EndUndoRedoHistory
Fore
SplineSet
308 1480 m 0
 413 1480 498 1404 498 1300 c 0
 498 1195 413 1120 308 1120 c 0
 204 1120 118 1195 118 1300 c 0
 118 1404 204 1480 308 1480 c 0
308 1195 m 0
 365 1195 409 1243 409 1301 c 0
 409 1358 365 1406 308 1406 c 0
 250 1406 207 1358 207 1301 c 0
 207 1243 250 1195 308 1195 c 0
EndSplineSet
EndChar

StartChar: s
Encoding: 115 115 317
Width: 907
VWidth: 0
GlyphClass: 2
Flags: W
HStem: -22 136<268.054 607.463> 916 136<329.616 660.802>
VStem: 124 164<688.677 876.236> 655 162<163.07 360.295>
AnchorPoint: "top" 500 1152 basechar 0
AnchorPoint: "bottom" 501 0 basechar 0
LayerCount: 2
UndoRedoHistory
Layer: 1
Undoes
EndUndoes
Redoes
EndRedoes
EndUndoRedoHistory
Fore
SplineSet
475 -22 m 0
 309 -22 179 41 118 78 c 1
 169 208 l 1
 264 154 359 114 465 114 c 0
 563 114 655 157 655 267 c 0
 655 372 541 411 401 473 c 0
 261 534 124 602 124 777 c 0
 124 959 280 1052 458 1052 c 0
 600 1052 710 1010 782 969 c 1
 735 837 l 1
 673 872 561 916 470 916 c 0
 358 916 288 866 288 779 c 0
 288 682 388 647 536 581 c 1
 686 519 817 450 817 279 c 0
 817 85 665 -22 475 -22 c 0
EndSplineSet
EndChar

StartChar: section
Encoding: 167 167 323
Width: 1044
VWidth: 0
GlyphClass: 2
Flags: W
HStem: -24 134<261.523 646.652> 1346 134<438.531 816.034>
VStem: 194 177<641.083 855.724> 230 171<1113.57 1307.42> 710 172<170.991 357.062> 727 178<627.905 823.855>
LayerCount: 2
UndoRedoHistory
Layer: 1
Undoes
EndUndoes
Redoes
EndRedoes
EndUndoRedoHistory
Fore
SplineSet
486 -24 m 0xc8
 388 -24 297 -4 221 27 c 1
 219 172 l 1
 302 136 381 110 481 110 c 0
 608.281 110 710 171.73 710 260 c 0
 710 370.829 612.838 385.134 508 431 c 2
 428 466 l 2
 309 518 194 599.123 194 734 c 0xe8
 194 861 295 931 383 974 c 1
 298 1025 230 1087 230 1211 c 0
 230 1405 410 1480 602 1480 c 0
 691 1480 751 1462 826 1440 c 1
 828 1296 l 1
 768 1323 688 1346 607 1346 c 0
 502 1346 401 1319 401 1215 c 0
 401 1135 453 1100 509 1069 c 0
 661.494 984.823 905 930.579 905 742 c 0xd4
 905 614 802 541 719 491 c 1
 804 449 882 392 882 269 c 0
 882 57.3796 698.367 -24 486 -24 c 0xc8
591 557 m 1
 652.841 596.473 727 648.828 727 728 c 0xe4
 727 849 576 887 499 920 c 1
 441 889 371 834 371 746 c 0
 371 621.604 484.087 599.117 591 557 c 1
EndSplineSet
EndChar

StartChar: semicolon
Encoding: 59 59 324
Width: 550
VWidth: 0
GlyphClass: 2
Flags: W
HStem: 816 210<169 386>
VStem: 169 217<816 1026>
LayerCount: 2
UndoRedoHistory
Layer: 1
Undoes
EndUndoes
Redoes
EndRedoes
EndUndoRedoHistory
Fore
SplineSet
110 -256 m 1
 216 207 l 1
 404 207 l 1
 241 -256 l 1
 110 -256 l 1
169 816 m 1
 169 1026 l 1
 386 1026 l 1
 386 816 l 1
 169 816 l 1
EndSplineSet
EndChar

StartChar: seven
Encoding: 55 55 325
Width: 1244
VWidth: 0
GlyphClass: 2
Flags: W
HStem: 0 21G<395 588.883> 1311 145<197 919>
LayerCount: 2
UndoRedoHistory
Layer: 1
Undoes
EndUndoes
Redoes
EndRedoes
EndUndoRedoHistory
Fore
SplineSet
395 0 m 1
 919 1311 l 1
 197 1311 l 1
 197 1456 l 1
 1119 1456 l 1
 1119 1365 l 1
 581 0 l 1
 395 0 l 1
EndSplineSet
EndChar

StartChar: six
Encoding: 54 54 326
Width: 1244
VWidth: 0
GlyphClass: 2
Flags: W
HStem: -24 150<500.496 830.096> 802 144<499.322 826.787> 1359 133<767.515 898.665>
VStem: 960 167<264.688 656.375>
LayerCount: 2
UndoRedoHistory
Layer: 1
Undoes
EndUndoes
Redoes
EndRedoes
EndUndoRedoHistory
Fore
SplineSet
675 -24 m 0
 331 -24 187 240 168 501 c 0
 140 890 303 1399 895 1492 c 1
 929 1359 l 1
 592 1312 393 1072 342 768 c 1
 407 890 581 946 687 946 c 0
 944 946 1127 735 1127 464 c 0
 1127 175 924 -24 675 -24 c 0
673 126 m 0
 850 126 960 254 960 459 c 0
 960 652 870 802 665 802 c 0
 480 802 335 660 335 469 c 0
 335 292 457 126 673 126 c 0
EndSplineSet
EndChar

StartChar: slash
Encoding: 47 47 327
Width: 863
VWidth: 0
GlyphClass: 2
Flags: W
HStem: 0 21G<41 212.64> 1436 20G<657.415 833>
LayerCount: 2
UndoRedoHistory
Layer: 1
Undoes
EndUndoes
Redoes
EndRedoes
EndUndoRedoHistory
Fore
SplineSet
41 0 m 1
 666 1456 l 1
 833 1456 l 1
 204 0 l 1
 41 0 l 1
EndSplineSet
EndChar

StartChar: sterling
Encoding: 163 163 329
Width: 1244
VWidth: 0
GlyphClass: 2
Flags: W
HStem: 0 141<408 1134> 660 132<189 371 545 860> 1331 152<649.364 1014.85>
VStem: 372 173<273.114 660 792 1222.08>
LayerCount: 2
UndoRedoHistory
Layer: 1
Undoes
EndUndoes
Redoes
EndRedoes
EndUndoRedoHistory
Fore
SplineSet
215 0 m 1
 215 138 l 1
 319 199 372 332 372 500 c 2
 372 660 l 1
 189 660 l 1
 189 792 l 1
 371 792 l 1
 371 926 l 2
 371 1276 494 1483 790 1483 c 0
 929 1483 1038 1453 1115 1392 c 1
 1063 1261 l 1
 993 1304 907 1331 800 1331 c 0
 600 1331 543 1191 543 982 c 2
 543 792 l 1
 860 792 l 1
 860 660 l 1
 545 660 l 1
 545 551 l 2
 545 352 502 217 408 141 c 1
 1134 141 l 1
 1134 0 l 1
 215 0 l 1
EndSplineSet
EndChar

StartChar: summation
Encoding: 8721 8721 330
Width: 1175
VWidth: 0
GlyphClass: 2
Flags: W
HStem: 0 148<356 1055> 1314 142<386 1010>
LayerCount: 2
UndoRedoHistory
Layer: 1
Undoes
EndUndoes
Redoes
EndRedoes
EndUndoRedoHistory
Fore
SplineSet
156 0 m 1
 156 123 l 1
 564 739 l 1
 178 1338 l 1
 178 1456 l 1
 1010 1456 l 1
 1010 1314 l 1
 386 1314 l 1
 760 741 l 1
 356 148 l 1
 1055 148 l 1
 1055 0 l 1
 156 0 l 1
EndSplineSet
EndChar

StartChar: t
Encoding: 116 116 331
Width: 856
VWidth: 0
GlyphClass: 2
Flags: W
HStem: -8 127<470.621 804.357> 919 107<58 261 422 756>
VStem: 261 161<168.148 919 1026 1323>
AnchorPoint: "top" 500 1152 basechar 0
AnchorPoint: "bottom" 501 0 basechar 0
LayerCount: 2
UndoRedoHistory
Layer: 1
Undoes
EndUndoes
Redoes
EndRedoes
EndUndoRedoHistory
Fore
SplineSet
587 -8 m 0
 361 -8 261 84 261 300 c 2
 261 919 l 1
 58 919 l 1
 58 1026 l 1
 266 1026 l 1
 266 1323 l 1
 422 1353 l 1
 422 1026 l 1
 756 1026 l 1
 756 919 l 1
 422 919 l 1
 425 298 l 2
 425 173 480 119 606 119 c 0
 652 119 752 140 799 158 c 1
 818 35 l 1
 755 13 644 -8 587 -8 c 0
EndSplineSet
EndChar

StartChar: thorn
Encoding: 254 254 334
Width: 1223
VWidth: 0
GlyphClass: 2
Flags: W
HStem: -508 21G<168 333> -22 131<482.468 792.406> 916 136<485.053 802.255> 1436 20G<168 335>
VStem: 168 165<-508 135 278.146 740.438 882 1456> 947 176<286.568 754.977>
LayerCount: 2
UndoRedoHistory
Layer: 1
Undoes
EndUndoes
Redoes
EndRedoes
EndUndoRedoHistory
Fore
SplineSet
168 -508 m 1
 168 1456 l 1
 335 1456 l 1
 335 882 l 1
 406 982 509 1052 664 1052 c 0
 977.638 1052 1123 806.619 1123 527 c 0
 1123 196.958 952 -22 664 -22 c 0
 526 -22 416 30 333 135 c 1
 333 -508 l 1
 168 -508 l 1
641 109 m 0
 858 109 947 296 947 521 c 0
 947 745 863 916 647 916 c 0
 418 916 333 732 333 494 c 0
 333 262.514 443.102 109 641 109 c 0
EndSplineSet
EndChar

StartChar: three
Encoding: 51 51 335
Width: 1244
VWidth: 0
GlyphClass: 2
Flags: W
HStem: -24 149<373.387 781.2> 696 148<446 750.529> 1330 151<381.129 751.611>
VStem: 859 165<943.24 1226.24> 908 170<247.63 564.967>
LayerCount: 2
UndoRedoHistory
Layer: 1
Undoes
EndUndoes
Redoes
EndRedoes
EndUndoRedoHistory
Fore
SplineSet
599 -24 m 0xe8
 456 -24 308 16 193 85 c 1
 246 225 l 1
 371 159 496 125 604 125 c 0
 780 125 908 215 908 406 c 0xe8
 908 600 763 696 524 696 c 2
 446 696 l 1
 446 844 l 1
 510 844 l 2
 736 844 859 906 859 1095 c 2
 859 1111 l 1
 854 1252 728 1330 579 1330 c 0
 466 1330 338 1286 239 1186 c 1
 143 1295 l 1
 246 1418 414 1481 576 1481 c 0
 802 1481 1017 1358 1024 1109 c 1
 1024 1093 l 2xf0
 1024 930 951 817 789 769 c 1
 979 730 1078 593 1078 404 c 0
 1078 98 848 -24 599 -24 c 0xe8
EndSplineSet
EndChar

StartChar: threequarters
Encoding: 190 190 336
Width: 2319
VWidth: 0
GlyphClass: 2
Flags: W
HStem: 0 21G<696 858.415 1807 1939> 264 99<1529 1807 1939 2127> 411 118<338.254 627.372> 914 114<416 615.88> 1364 118<342.4 621.202> 1436 20G<1517.56 1678>
VStem: 672 129<1082.88 1312.39> 693 130<598.817 852.788> 1807 132<0 264 363 617>
LayerCount: 2
UndoRedoHistory
Layer: 1
Undoes
EndUndoes
Redoes
EndRedoes
EndUndoRedoHistory
Fore
SplineSet
696 0 m 1xf480
 1529 1456 l 1
 1678 1456 l 1
 847 0 l 1
 696 0 l 1xf480
1938 617 m 1
 1938 363 l 1
 2127 363 l 1
 2127 264 l 1
 1939 264 l 1
 1939 0 l 1
 1807 0 l 1
 1807 264 l 1
 1368 264 l 1
 1368 355 l 1
 1729 1026 l 1
 1866 1026 l 1
 1529 363 l 1
 1807 363 l 1
 1807 617 l 1
 1938 617 l 1
500 411 m 0
 366 411 271 478 263 483 c 1
 301 596 l 1
 327 579 400 529 493 529 c 0
 604 529 693 599 693 718 c 0xf980
 693 857 614 915 471 914 c 1
 416 914 l 1
 416 1028 l 1
 464 1028 l 2
 603 1028 679 1096 672 1214 c 1
 668 1304 589 1364 501 1364 c 0
 402 1364 329 1320 289 1277 c 1
 235 1370 l 1
 293 1440 396 1482 514 1482 c 0
 650 1482 795 1398 801 1224 c 0xfa80
 805 1102 749 1004 646 972 c 1
 759 945 822 849 823 715 c 0xf980
 825 518 664 411 500 411 c 0
EndSplineSet
Ligature2: "fracDiagonalFractionslookup0 subtable" three fraction four
Ligature2: "fracDiagonalFractionslookup0 subtable" three slash four
EndChar

StartChar: tilde
Encoding: 732 732 337
Width: 673
VWidth: 0
GlyphClass: 2
Flags: W
HStem: 1214 125<350.341 541.97> 1294 125<143.908 354.102>
VStem: 24 105<1203 1280.84> 560 108<1352.8 1435>
AnchorPoint: "top" 339 1152 mark 0
LayerCount: 2
UndoRedoHistory
Layer: 1
Undoes
EndUndoes
Redoes
EndRedoes
EndUndoRedoHistory
Fore
SplineSet
24 1203 m 1x70
 34 1319 99 1419 223 1419 c 0x70
 325 1419 399 1339 473 1339 c 0
 526 1339 553 1384 560 1435 c 1
 668 1435 l 1
 655 1322 597 1214 473 1214 c 0xb0
 377 1214 315 1294 220 1294 c 0
 166 1294 136 1260 129 1203 c 1
 24 1203 l 1x70
EndSplineSet
EndChar

StartChar: trademark
Encoding: 8482 8482 338
Width: 1839
VWidth: 0
GlyphClass: 2
Flags: W
HStem: 1354 101<80 333 457 707>
VStem: 333 124<690 1354> 814 115<690 1273> 1530 116<690 1274>
LayerCount: 2
UndoRedoHistory
Layer: 1
Undoes
EndUndoes
Redoes
EndRedoes
EndUndoRedoHistory
Fore
SplineSet
814 690 m 1
 814 1455 l 1
 961 1455 l 1
 1229 846 l 1
 1508 1455 l 1
 1646 1455 l 1
 1646 690 l 1
 1530 690 l 1
 1530 1274 l 1
 1280 719 l 1
 1178 719 l 1
 929 1273 l 1
 929 690 l 1
 814 690 l 1
333 690 m 1
 333 1354 l 1
 80 1354 l 1
 80 1455 l 1
 707 1455 l 1
 707 1354 l 1
 457 1354 l 1
 457 690 l 1
 333 690 l 1
EndSplineSet
EndChar

StartChar: two
Encoding: 50 50 339
Width: 1244
VWidth: 0
GlyphClass: 2
Flags: W
HStem: 0 138<472 1036> 1330 150<444.356 750.84>
VStem: 850 171<867.731 1225.7>
LayerCount: 2
UndoRedoHistory
Layer: 1
Undoes
EndUndoes
Redoes
EndRedoes
EndUndoRedoHistory
Fore
SplineSet
594 1480 m 0
 857 1480 1014 1321 1021 1062 c 0
 1027 850 916 695 746 484 c 1
 472 138 l 1
 1036 138 l 1
 1036 0 l 1
 256 0 l 1
 256 128 l 1
 636 604 l 1
 783 786 858 930 850 1071 c 1
 843 1225 758 1330 597 1330 c 0
 400 1330 297 1134 296 1135 c 2
 198 1263 l 1
 198 1263 336 1480 594 1480 c 0
EndSplineSet
EndChar

StartChar: u
Encoding: 117 117 340
Width: 1239
VWidth: 0
GlyphClass: 2
Flags: W
HStem: -22 136<418.041 708.641 1064.01 1142> 1006 20G<164.077 293.738 862 1026>
VStem: 179 165<193.724 984.522> 862 164<283.113 1026>
AnchorPoint: "top" 600 1152 basechar 0
AnchorPoint: "bottom" 587 0 basechar 0
AnchorPoint: "ogonek" 947 0 basechar 0
LayerCount: 2
UndoRedoHistory
Layer: 1
Undoes
EndUndoes
Redoes
EndRedoes
EndUndoRedoHistory
Fore
SplineSet
541 -22 m 0
 355 -22 171 80 179 365 c 2
 185 582 l 2
 194 901 126 1000 126 1000 c 1
 291 1026 l 1
 291 1026 359 941 350 595 c 2
 344 365 l 2
 339 167 445 114 561 114 c 0
 726 114 862 259 862 482 c 2
 862 1026 l 1
 1026 1026 l 1
 1026 328 l 2
 1026 182 1045 121 1171 121 c 1
 1142 -14 l 1
 1005 -14 911 32 881 161 c 1
 806 37 693 -22 541 -22 c 0
EndSplineSet
EndChar

StartChar: underscore
Encoding: 95 95 348
Width: 987
VWidth: 0
GlyphClass: 2
Flags: W
HStem: -152 128<4 987>
LayerCount: 2
UndoRedoHistory
Layer: 1
Undoes
EndUndoes
Redoes
EndRedoes
EndUndoRedoHistory
Fore
SplineSet
4 -152 m 1
 4 -24 l 1
 987 -24 l 1
 987 -152 l 1
 4 -152 l 1
EndSplineSet
EndChar

StartChar: uni00B2
Encoding: 178 178 351
Width: 1200
VWidth: 0
GlyphClass: 2
Flags: W
HStem: 604 118<475 839> 1323 117<449.982 687.134>
VStem: 711 129<1097.72 1297.27>
LayerCount: 2
UndoRedoHistory
Layer: 1
Undoes
EndUndoes
Redoes
EndRedoes
EndUndoRedoHistory
Fore
SplineSet
293 604 m 1
 293 715 l 1
 399 812 505 908 594 1006 c 0
 631 1047 659 1084 680 1118 c 0
 701 1152 711 1183 711 1211 c 0
 711 1286 650 1323 571 1323 c 0
 476 1323 419 1262 386 1192 c 1
 301 1270 l 1
 344 1370 439 1440 577 1440 c 0
 695 1440 781 1388 820 1307 c 0
 833 1279 840 1248 840 1213 c 0
 840 1108 788 1033 734 968 c 0
 660 879 567 802 475 722 c 1
 839 722 l 1
 839 604 l 1
 293 604 l 1
EndSplineSet
EndChar

StartChar: uni00B3
Encoding: 179 179 352
Width: 1200
VWidth: 0
GlyphClass: 2
Flags: W
HStem: 586 115<348.508 621.276> 970 119<390 605.665> 1322 119<349.325 613.576>
VStem: 636 133<1121.73 1299.46> 661 129<742.782 933.14>
LayerCount: 2
UndoRedoHistory
Layer: 1
Undoes
EndUndoes
Redoes
EndRedoes
EndUndoRedoHistory
Fore
SplineSet
491 586 m 0xe8
 384 586 302 626 245 683 c 1
 305 779 l 1
 361 727 421 701 486 701 c 0
 580 701 661 745 661 837 c 0xe8
 661 948 559 971 446 971 c 0
 439 971 425 970 416 970 c 2
 390 970 l 1
 390 1089 l 1
 439 1089 l 2
 540 1089 636 1110 636 1210 c 0
 636 1291 576 1322 495 1322 c 0
 413 1322 352 1284 303 1244 c 1
 245 1340 l 1
 300 1394 393 1441 497 1441 c 0
 616 1441 704 1388 746 1310 c 0
 761 1282 769 1250 769 1213 c 0xf0
 769 1124 724 1065 662 1032 c 1
 736 999 790 937 790 834 c 0
 790 708 704 634 606 603 c 0
 570 592 531 586 491 586 c 0xe8
EndSplineSet
EndChar

StartChar: uni00B9
Encoding: 185 185 353
Width: 1200
VWidth: 0
GlyphClass: 2
Flags: W
HStem: 604 119<280 402 523 645>
VStem: 402 121<723 1271>
LayerCount: 2
UndoRedoHistory
Layer: 1
Undoes
EndUndoes
Redoes
EndRedoes
EndUndoRedoHistory
Fore
SplineSet
280 604 m 1
 280 723 l 1
 402 723 l 1
 402 1008 l 2
 402 1067 401 1116 401 1168 c 2
 401 1271 l 1
 357 1248 299 1222 249 1203 c 1
 250 1333 l 1
 317 1354 366 1381 418 1412 c 1
 523 1427 l 1
 523 720 l 1
 645 720 l 1
 645 604 l 1
 280 604 l 1
EndSplineSet
EndChar

StartChar: uni0311
Encoding: 785 785 380
Width: 639
VWidth: 0
GlyphClass: 2
Flags: W
HStem: 1347 107<174.764 463.884>
VStem: 42 87<1218 1299.19> 520 86<1218 1290.97>
AnchorPoint: "top" 318 1152 mark 0
LayerCount: 2
UndoRedoHistory
Layer: 1
Undoes
EndUndoes
Redoes
EndRedoes
EndUndoRedoHistory
Fore
SplineSet
42 1218 m 1
 55 1378 155 1454 326 1454 c 0
 492 1454 593 1372 606 1218 c 1
 520 1218 l 1
 500 1302 421 1347 319 1347 c 0
 217 1347 144 1306 129 1218 c 1
 42 1218 l 1
EndSplineSet
EndChar

StartChar: uni0326
Encoding: 806 806 381
Width: 10
VWidth: 0
GlyphClass: 2
Flags: W
HStem: -463 463<-76 -52>
VStem: -183 294
LayerCount: 2
UndoRedoHistory
Layer: 1
Undoes
EndUndoes
Redoes
EndRedoes
EndUndoRedoHistory
Fore
SplineSet
-183 -463 m 1
 -76 0 l 1
 111 0 l 1
 -52 -463 l 1
 -183 -463 l 1
EndSplineSet
EndChar

StartChar: uni03A9
Encoding: 937 937 382
Width: 1572
VWidth: 0
GlyphClass: 2
Flags: W
HStem: 0 138<114 439 1131 1444> 1330 150<580.722 1009.18>
VStem: 124 179<531.722 1033.17> 1273 178<531.937 1037.96>
LayerCount: 2
UndoRedoHistory
Layer: 1
Undoes
EndUndoes
Redoes
EndRedoes
EndUndoRedoHistory
Fore
SplineSet
114 0 m 1
 103 138 l 1
 439 137 l 1
 261.857 273.162 124 524 124 807 c 0
 124 1236 383 1480 798 1480 c 0
 1212 1480 1451 1221 1451 803 c 0
 1451 497 1297.05 273.398 1131 137 c 1
 1453 138 l 1
 1444 0 l 1
 937 0 l 1
 933 121 l 1
 1123.25 253.121 1273 509 1273 785 c 0
 1273 1126 1094 1330 794 1330 c 0
 468 1330 303 1093 303 790 c 0
 303 477 454.242 245.956 638 121 c 1
 641 0 l 1
 114 0 l 1
EndSplineSet
EndChar

StartChar: uni03BC
Encoding: 956 956 383
Width: 1239
VWidth: 0
GlyphClass: 2
Flags: W
HStem: -22 136<415.195 708.641 1064.01 1142> 1006 20G<164.077 293.738 862 1026>
VStem: 187 155<-202 26 189.311 963.749> 862 164<283.113 1026>
LayerCount: 2
UndoRedoHistory
Layer: 1
Undoes
EndUndoes
Redoes
EndRedoes
EndUndoRedoHistory
Fore
SplineSet
541 -22 m 0
 471 -22 401 -8 342 26 c 1
 342 -202 l 1
 187 -202 l 1
 185 582 l 1
 194 901 126 1000 126 1000 c 1
 291 1026 l 1
 291 1026 359 941 350 595 c 2
 344 365 l 2
 339 167 445 114 561 114 c 0
 726 114 862 259 862 482 c 2
 862 1026 l 1
 1026 1026 l 1
 1026 328 l 2
 1026 182 1045 121 1171 121 c 1
 1142 -14 l 1
 1005 -14 911 32 881 161 c 1
 806 37 693 -22 541 -22 c 0
EndSplineSet
EndChar

StartChar: uni2074
Encoding: 8308 8308 398
Width: 907
VWidth: 0
GlyphClass: 2
Flags: W
HStem: 803 107<127 366 488 597>
VStem: 366 122<615 803 910 1244>
LayerCount: 2
UndoRedoHistory
Layer: 1
Undoes
EndUndoes
Redoes
EndRedoes
EndUndoRedoHistory
Fore
SplineSet
366 615 m 1
 366 803 l 1
 -12 803 l 1
 -12 894 l 1
 354 1412 l 1
 488 1412 l 1
 488 910 l 1
 597 910 l 1
 607 803 l 1
 486 803 l 1
 486 615 l 1
 366 615 l 1
127 910 m 1
 366 910 l 1
 366 1244 l 1
 127 910 l 1
EndSplineSet
EndChar

StartChar: uniF6C3
Encoding: 63171 63171 399
Width: 609
VWidth: 0
GlyphClass: 2
Flags: W
HStem: -463 463<227 251>
VStem: 120 294
LayerCount: 2
UndoRedoHistory
Layer: 1
Undoes
EndUndoes
Redoes
EndRedoes
EndUndoRedoHistory
Fore
SplineSet
120 -463 m 1
 227 0 l 1
 414 0 l 1
 251 -463 l 1
 120 -463 l 1
EndSplineSet
EndChar

StartChar: v
Encoding: 118 118 403
Width: 1050
VWidth: 0
GlyphClass: 2
Flags: W
HStem: 0 21G<434.774 619.148> 1006 20G<21 210.942 844.435 1029>
LayerCount: 2
UndoRedoHistory
Layer: 1
Undoes
EndUndoes
Redoes
EndRedoes
EndUndoRedoHistory
Fore
SplineSet
443 0 m 1
 21 1026 l 1
 203 1026 l 1
 477 336 l 2
 496 290 519 217 535 163 c 1
 566 264 579 309 591 336 c 1
 852 1026 l 1
 1029 1026 l 1
 611 0 l 1
 443 0 l 1
EndSplineSet
EndChar

StartChar: w
Encoding: 119 119 404
Width: 1667
VWidth: 0
GlyphClass: 2
Flags: W
HStem: 0 21G<384.885 560.931 1105.5 1279.17> 1006 20G<27 209.712 761.173 933.514 1464.5 1640>
AnchorPoint: "top" 843 1024 basechar 0
AnchorPoint: "bottom" 840 0 basechar 0
LayerCount: 2
UndoRedoHistory
Layer: 1
Undoes
EndUndoes
Redoes
EndRedoes
EndUndoRedoHistory
Fore
SplineSet
392 0 m 1
 27 1026 l 1
 203 1026 l 1
 452 284 l 2
 462 255 471 217 481 186 c 1
 491 214 500 249 512 276 c 1
 768 1026 l 1
 927 1026 l 1
 1168 286 l 2
 1178 258 1187 219 1197 189 c 1
 1210 219 1219 255 1231 287 c 1
 1471 1026 l 1
 1640 1026 l 1
 1272 0 l 1
 1112 0 l 1
 842 831 l 1
 554 0 l 1
 392 0 l 1
EndSplineSet
EndChar

StartChar: x
Encoding: 120 120 409
Width: 1065
VWidth: 0
GlyphClass: 2
Flags: W
HStem: 0 21G<49 253.314 801.078 1016> 1006 20G<68 283.8 810.1 1003>
LayerCount: 2
UndoRedoHistory
Layer: 1
Undoes
EndUndoes
Redoes
EndRedoes
EndUndoRedoHistory
Fore
SplineSet
49 0 m 1
 441 514 l 1
 68 1026 l 1
 270 1026 l 1
 546 626 l 1
 824 1026 l 1
 1003 1026 l 1
 633 518 l 1
 1016 0 l 1
 815 0 l 1
 531 408 l 1
 239 0 l 1
 49 0 l 1
EndSplineSet
EndChar

StartChar: y
Encoding: 121 121 410
Width: 1196
VWidth: 0
GlyphClass: 2
Flags: W
HStem: -494 137<323.354 719.885> -22 136<427.696 739.741> 1006 20G<164.077 293.738 876 1040>
VStem: 179 165<203.391 984.522> 876 164<-205.132 198 253.979 1026>
AnchorPoint: "top" 536 1024 basechar 0
LayerCount: 2
UndoRedoHistory
Layer: 1
Undoes
EndUndoes
Redoes
EndRedoes
EndUndoRedoHistory
Fore
SplineSet
555 -494 m 0
 458 -494 328 -470 227 -433 c 1
 246 -280 l 1
 338 -326 456 -357 541 -357 c 0
 742 -357 876 -232 876 -44 c 2
 876 219 l 1
 936 198 l 1
 861 73 745 -22 559 -22 c 0
 373 -22 171 80 179 365 c 2
 185 582 l 2
 194 901 126 1000 126 1000 c 1
 291 1026 l 1
 291 1026 359 941 350 595 c 2
 344 365 l 2
 339 167 467 114 583 114 c 0
 741 114 876 230 876 427 c 2
 876 1026 l 1
 1040 1026 l 1
 1040 -23 l 2
 1040 -306 842 -494 555 -494 c 0
EndSplineSet
EndChar

StartChar: yen
Encoding: 165 165 414
Width: 1235
VWidth: 0
GlyphClass: 2
Flags: W
HStem: 0 21<530.5 702.5> 283 120<167 546 687 1068> 574 122<161 546 687 1065> 1436 20<8.5 210.913 1023.98 1226.5>
VStem: 530.5 172<0 582> 546 141<403 574>
LayerCount: 2
UndoRedoHistory
Layer: 1
Undoes
EndUndoes
Redoes
EndRedoes
EndUndoRedoHistory
Fore
SplineSet
167 283 m 1xf4
 167 403 l 1
 546 403 l 1
 546 574 l 1
 161 574 l 1
 161 696 l 1
 1065 696 l 1
 1065 574 l 1
 687 574 l 1
 687 403 l 1
 1068 403 l 1
 1068 283 l 1
 167 283 l 1xf4
EndSplineSet
Refer: 113 89 N 1 0 0 1 0 0 2
EndChar

StartChar: z
Encoding: 122 122 416
Width: 978
VWidth: 0
GlyphClass: 2
Flags: W
HStem: 0 134<315 916> 891 135<116 676>
AnchorPoint: "top" 506 1024 basechar 0
AnchorPoint: "bottom" 555 0 basechar 0
LayerCount: 2
UndoRedoHistory
Layer: 1
Undoes
EndUndoes
Redoes
EndRedoes
EndUndoRedoHistory
Fore
SplineSet
90 0 m 1
 90 89 l 1
 676 891 l 1
 116 891 l 1
 116 1026 l 1
 899 1026 l 1
 899 939 l 1
 315 134 l 1
 916 134 l 1
 916 0 l 1
 90 0 l 1
EndSplineSet
EndChar

StartChar: zero
Encoding: 48 48 420
Width: 1244
VWidth: 0
GlyphClass: 2
Flags: W
HStem: -24 150<474.991 760.293> 1330 150<481.429 770.915>
VStem: 126 184<362.884 1080.24> 934 184<381.489 1099.53>
LayerCount: 2
UndoRedoHistory
Layer: 1
Undoes
EndUndoes
Redoes
EndRedoes
EndUndoRedoHistory
Fore
SplineSet
623 126 m 0
 874 126 934 456 934 726 c 0
 934 1012 895 1330 623 1330 c 0
 368 1330 310 1000 310 726 c 0
 310 439 350 126 623 126 c 0
618 -24 m 0
 243 -24 126 335 126 726 c 0
 126 1119 251 1480 623 1480 c 0
 1015 1480 1118 1133 1118 726 c 0
 1118 341 984 -24 618 -24 c 0
EndSplineSet
EndChar
